# Blender v2.79 (sub 0) OBJ File: 'ascensor01.blend'
# www.blender.org
mtllib ascensor01.mtl
o Cube
v 1.000000 -1.000000 -3.003626
v 1.000000 -1.000000 1.895960
v -4.005439 -1.000000 1.895960
v -4.005438 -1.000000 -3.003626
v 1.000000 -0.663387 -3.003626
v 0.999999 -0.663387 1.895960
v -4.005439 -0.663387 1.895959
v -4.005439 -0.663387 -3.003626
v 0.711142 -0.481075 -2.599140
v 0.711141 -0.481075 1.491474
v -3.716581 -0.481075 1.491473
v -3.716580 -0.481075 -2.599140
v 0.806118 -1.000000 -3.003626
v 0.806118 -1.000000 1.895960
v 0.806118 -0.663387 -3.003626
v 0.806117 -0.663387 1.895960
v 0.539637 -0.481075 -2.599140
v 0.539636 -0.481075 1.491474
v -3.805786 -1.000000 -3.003626
v -3.805786 -1.000000 1.895960
v -3.805786 -0.663387 -3.003626
v -3.805787 -0.663387 1.895959
v -3.539971 -0.481075 -2.599140
v -3.539971 -0.481075 1.491473
v 1.000000 -1.000000 1.486833
v -4.005439 -1.000000 1.486833
v 0.999999 -0.663387 1.486834
v -4.005439 -0.663387 1.486833
v 0.711141 -0.481075 1.129569
v -3.716581 -0.481075 1.129568
v 0.539636 -0.481075 1.129569
v 0.806118 -1.245760 1.486833
v -3.539971 -0.481075 1.129568
v -3.805786 -1.245760 1.486833
v -4.005438 -1.000000 -2.547173
v -4.005439 -0.663387 -2.547172
v -3.716580 -0.481075 -2.195369
v 0.806118 -1.245760 -2.547172
v -3.805786 -1.245760 -2.547173
v 1.000000 -1.000000 -2.547172
v 1.000000 -0.663387 -2.547172
v 0.711142 -0.481075 -2.195369
v 0.539637 -0.481075 -2.195369
v -3.539971 -0.481075 -2.195369
v 0.711141 -0.028877 1.129569
v 0.711141 -0.028877 1.491474
v -3.539971 -0.028877 -2.599140
v -3.716580 -0.028877 -2.599140
v -3.539971 -0.028877 1.491473
v -3.716581 -0.028877 1.491473
v -3.716580 -0.028877 -2.195369
v 0.711142 -0.028877 -2.599140
v 0.539637 -0.028877 -2.599140
v 0.539636 -0.028877 1.491474
v 0.539636 -0.028877 1.129569
v -3.539971 -0.028877 1.129568
v 0.711142 -0.028877 -2.195369
v -3.716581 -0.028877 1.129568
v 0.539637 -0.028877 -2.195369
v -3.539971 -0.028877 -2.195369
v -0.731183 -1.000000 -3.003626
v -2.268485 -1.000000 -3.003626
v -0.731183 -1.000000 1.895960
v -2.268485 -1.000000 1.895960
v -0.731183 -0.663387 -3.003626
v -2.268485 -0.663387 -3.003626
v -0.731184 -0.663387 1.895960
v -2.268486 -0.663387 1.895960
v -0.820232 -0.481075 -2.599140
v -2.180101 -0.481075 -2.599140
v -0.820233 -0.481075 1.491474
v -2.180102 -0.481075 1.491474
v -0.731183 -1.245760 1.486833
v -2.268485 -1.245760 1.486833
v -2.180102 -0.481075 1.129568
v -0.820233 -0.481075 1.129568
v -2.180101 -0.481075 -2.195369
v -0.820232 -0.481075 -2.195369
v -0.731183 -1.245760 -2.547172
v -2.268485 -1.245760 -2.547173
v -0.820232 -0.460348 -2.599140
v -2.180101 -0.460348 -2.599140
v -0.820233 -0.028877 1.491474
v -2.180102 -0.028877 1.491474
v -2.180102 -0.028877 1.129568
v -0.820233 -0.028877 1.129568
v -2.180101 -0.460348 -2.195369
v -0.820232 -0.460348 -2.195369
v -2.453501 -1.589824 0.747457
v -3.620770 -1.589824 0.747456
v 0.634789 -1.589824 0.802157
v 0.634789 -1.589824 -1.862496
v -3.620770 -1.589824 -1.807796
v -2.453501 -1.589824 -1.807796
v -0.559855 -1.589824 0.802157
v -0.559855 -1.589824 -1.862496
vt 0.592193 0.970045
vt 0.559210 0.955665
vt 0.561813 0.940839
vt 0.592193 0.946174
vt 0.279458 0.263147
vt 0.290706 0.253811
vt 0.295310 0.293458
vt 0.285361 0.301716
vt 0.408532 0.914769
vt 0.408532 0.940147
vt 0.377687 0.940147
vt 0.377687 0.914769
vt 0.015377 0.914769
vt 0.015377 0.940147
vt 0.000325 0.940147
vt 0.000325 0.914769
vt 0.335299 0.914118
vt 0.335299 0.888741
vt 0.369712 0.888741
vt 0.369712 0.914118
vt 0.384764 0.888741
vt 0.384764 0.914118
vt 0.321544 0.852895
vt 0.308250 0.852895
vt 0.308250 0.818856
vt 0.321544 0.818856
vt 0.534910 0.483092
vt 0.559997 0.506647
vt 0.520139 0.504548
vt 0.497947 0.483712
vt 0.022812 0.021437
vt 0.000325 0.000325
vt 0.040183 0.002424
vt 0.060074 0.021099
vt 0.281201 0.243548
vt 0.269618 0.253161
vt 0.265014 0.213514
vt 0.275259 0.205011
vt 0.559998 0.012156
vt 0.548750 0.021491
vt 0.511929 0.008583
vt 0.521878 0.000325
vt 0.027568 0.852895
vt 0.000325 0.852895
vt 0.000325 0.818856
vt 0.027568 0.818856
vt 0.747074 0.888741
vt 0.747074 0.914119
vt 0.732457 0.914119
vt 0.732457 0.888741
vt 0.363070 0.940147
vt 0.363071 0.914769
vt 0.190275 0.337165
vt 0.206471 0.367192
vt 0.592121 0.994329
vt 0.561744 0.999675
vt 0.559210 0.985279
vt 0.592119 0.970729
vt 0.000325 0.494816
vt 0.011908 0.485203
vt 0.048691 0.498143
vt 0.038445 0.506647
vt 0.370384 0.169529
vt 0.354149 0.139535
vt 0.334135 0.853999
vt 0.361419 0.853999
vt 0.361419 0.888090
vt 0.334135 0.888090
vt 0.500661 0.888741
vt 0.500661 0.914118
vt 0.131275 0.914769
vt 0.131275 0.940147
vt 0.676546 0.470666
vt 0.676546 0.506647
vt 0.560648 0.506647
vt 0.560648 0.470666
vt 0.561145 0.286708
vt 0.560648 0.144519
vt 0.626443 0.173150
vt 0.623759 0.257024
vt 0.446962 0.757967
vt 0.344440 0.757967
vt 0.344440 0.507297
vt 0.446962 0.507297
vt 0.896249 0.994295
vt 0.896246 0.970695
vt 0.612089 0.853999
vt 0.642530 0.853999
vt 0.642530 0.888090
vt 0.612089 0.888090
vt 0.244531 0.229607
vt 0.242821 0.192678
vt 0.313192 0.274924
vt 0.315201 0.312134
vt 0.000325 0.914118
vt 0.000325 0.888741
vt 0.031170 0.888741
vt 0.031170 0.914118
vt 0.712661 0.914769
vt 0.712661 0.940147
vt 0.896320 0.970045
vt 0.896320 0.946174
vt 0.932661 0.955664
vt 0.930310 0.940797
vt 0.747074 0.914769
vt 0.747074 0.940147
vt 0.102847 0.974889
vt 0.000325 0.974889
vt 0.000325 0.940797
vt 0.102847 0.940797
vt 0.321205 0.853999
vt 0.321205 0.888090
vt 0.930238 0.999675
vt 0.932523 0.985238
vt 0.641550 0.853138
vt 0.628640 0.853137
vt 0.628645 0.819097
vt 0.641555 0.819099
vt 0.676547 0.403907
vt 0.676547 0.442991
vt 0.560648 0.442991
vt 0.560648 0.403907
vt 0.016650 0.534740
vt 0.003312 0.534623
vt 0.003528 0.507301
vt 0.016861 0.507407
vt 0.338382 0.534591
vt 0.325419 0.534783
vt 0.325174 0.507425
vt 0.338087 0.507297
vt 0.119435 0.535467
vt 0.119517 0.508085
vt 0.343295 0.785741
vt 0.330360 0.785975
vt 0.014123 0.785863
vt 0.000771 0.785699
vt 0.013648 0.816418
vt 0.000325 0.816215
vt 0.343790 0.816163
vt 0.330868 0.816373
vt 0.121203 0.818205
vt 0.121411 0.787835
vt 0.558560 0.974889
vt 0.307890 0.974889
vt 0.307890 0.940797
vt 0.558560 0.940797
vt 0.799303 0.758844
vt 0.901632 0.759070
vt 0.901632 0.793098
vt 0.799303 0.760630
vt 0.423909 0.853122
vt 0.423910 0.851335
vt 0.000325 0.853999
vt 0.013640 0.853999
vt 0.013640 0.888090
vt 0.000325 0.888090
vt 0.277856 0.852895
vt 0.277856 0.818856
vt 0.218683 0.853999
vt 0.218683 0.888090
vt 0.344445 0.758793
vt 0.594645 0.758829
vt 0.594640 0.792857
vt 0.344440 0.792821
vt 0.116162 0.853999
vt 0.116162 0.888090
vt 0.526275 0.853348
vt 0.526275 0.851562
vt 0.696974 0.758617
vt 0.696974 0.760404
vt 0.223551 0.818005
vt 0.223280 0.787681
vt 0.222482 0.535247
vt 0.222393 0.507905
vt 0.908343 0.403907
vt 0.908343 0.442991
vt 0.792445 0.442991
vt 0.792445 0.403907
vt 0.205368 0.974889
vt 0.205368 0.940797
vt 0.652005 0.757967
vt 0.549483 0.757967
vt 0.549483 0.507297
vt 0.652005 0.507297
vt 0.872244 0.143869
vt 0.561269 0.143869
vt 0.620405 0.114548
vt 0.809729 0.115656
vt 0.864775 0.403257
vt 0.560648 0.403257
vt 0.560648 0.287359
vt 0.864775 0.287359
vt 0.908343 0.470665
vt 0.908343 0.506647
vt 0.792444 0.506647
vt 0.792444 0.470666
vt 0.247173 0.940147
vt 0.247173 0.914769
vt 0.616559 0.914119
vt 0.616559 0.888741
vt 0.459567 0.095510
vt 0.433039 0.074059
vt 0.101091 0.411184
vt 0.127581 0.432667
vt 0.805639 0.258078
vt 0.808323 0.174204
vt 0.623099 0.028561
vt 0.812370 0.029670
vt 0.560648 0.000325
vt 0.871445 0.000325
vt 0.870937 0.144519
vt 0.871434 0.286708
vn -0.5078 -0.8251 0.2478
vn 0.0000 0.9117 0.4109
vn 1.0000 0.0000 0.0000
vn 0.0000 0.0000 1.0000
vn -1.0000 -0.0000 0.0000
vn 0.0000 0.0000 -1.0000
vn 0.5337 0.8457 0.0000
vn -0.5337 0.8457 0.0000
vn 0.0000 0.9117 -0.4109
vn 0.5189 -0.8187 0.2459
vn -0.0000 -0.8572 0.5149
vn -0.0000 -0.9066 0.4219
vn 0.0000 1.0000 0.0000
vn 0.7851 -0.6194 0.0000
vn -0.7762 -0.6305 -0.0000
vn -0.5109 -0.8301 -0.2235
vn 0.5220 -0.8236 -0.2217
vn 0.0000 -0.8805 -0.4741
vn 0.3024 0.9532 0.0000
vn -0.3024 0.9532 -0.0000
vn 0.8952 -0.4457 0.0000
vn 0.0000 -1.0000 0.0000
vn -0.8952 -0.4457 -0.0000
vn 0.0000 -0.9066 -0.4219
vn 0.0000 -0.8935 -0.4490
vn -0.8807 -0.4736 -0.0000
vn 0.8807 -0.4736 0.0000
vn 0.0000 -0.8935 0.4490
usemtl Material
s off
f 34/1/1 20/2/1 3/3/1 26/4/1
f 16/5/2 6/6/2 10/7/2 18/8/2
f 25/9/3 27/10/3 6/11/3 2/12/3
f 20/13/4 22/14/4 7/15/4 3/16/4
f 35/17/5 36/18/5 8/19/5 4/20/5
f 21/21/6 19/22/6 4/20/6 8/19/6
f 23/23/6 12/24/6 48/25/6 47/26/6
f 41/27/7 5/28/7 9/29/7 42/30/7
f 28/31/8 7/32/8 11/33/8 30/34/8
f 21/35/9 8/36/9 12/37/9 23/38/9
f 5/39/9 15/40/9 17/41/9 9/42/9
f 30/43/5 11/44/5 50/45/5 58/46/5
f 5/47/6 1/48/6 13/49/6 15/50/6
f 2/12/4 6/11/4 16/51/4 14/52/4
f 67/53/2 16/5/2 18/8/2 71/54/2
f 25/55/10 2/56/10 14/57/10 32/58/10
f 7/59/2 22/60/2 24/61/2 11/62/2
f 66/63/9 21/35/9 23/38/9 70/64/9
f 10/65/3 29/66/3 45/67/3 46/68/3
f 66/69/6 62/70/6 19/22/6 21/21/6
f 64/71/4 68/72/4 22/14/4 20/13/4
f 74/73/11 64/74/11 20/75/11 34/76/11
f 74/77/12 34/78/12 90/79/12 89/80/12
f 77/81/13 44/82/13 33/83/13 75/84/13
f 40/85/14 25/55/14 32/58/14 38/86/14
f 42/87/3 9/88/3 52/89/3 57/90/3
f 36/91/8 28/31/8 30/34/8 37/92/8
f 6/6/7 27/93/7 29/94/7 10/7/7
f 29/66/3 42/87/3 57/90/3 45/67/3
f 3/95/5 7/96/5 28/97/5 26/98/5
f 40/99/3 41/100/3 27/10/3 25/9/3
f 39/101/15 34/1/15 26/4/15 35/102/15
f 19/103/16 39/101/16 35/102/16 4/104/16
f 1/105/3 5/106/3 41/100/3 40/99/3
f 75/107/6 33/108/6 56/109/6 85/110/6
f 8/36/8 36/91/8 37/92/8 12/37/8
f 18/111/4 10/65/4 46/68/4 54/112/4
f 1/113/17 40/85/17 38/86/17 13/114/17
f 9/115/6 17/116/6 53/117/6 52/118/6
f 62/119/18 80/120/18 39/121/18 19/122/18
f 27/93/7 41/27/7 42/30/7 29/94/7
f 26/98/5 28/97/5 36/18/5 35/17/5
f 56/123/13 58/124/13 50/125/13 49/126/13
f 45/127/13 55/128/13 54/129/13 46/130/13
f 85/131/13 56/123/13 49/126/13 84/132/13
f 57/133/13 59/134/13 55/128/13 45/127/13
f 60/135/13 51/136/13 58/124/13 56/123/13
f 47/137/13 48/138/13 51/136/13 60/135/13
f 52/139/13 53/140/13 59/134/13 57/133/13
f 82/141/19 47/137/19 60/135/19 87/142/19
f 43/143/5 31/144/5 55/145/5 59/146/5
f 78/147/4 43/148/4 59/149/4 88/150/4
f 70/151/6 23/23/6 47/26/6 82/152/6
f 11/153/4 24/154/4 49/155/4 50/156/4
f 37/157/5 30/43/5 58/46/5 51/158/5
f 71/159/4 18/111/4 54/112/4 83/160/4
f 12/24/5 37/157/5 51/158/5 48/25/5
f 33/161/3 44/162/3 60/163/3 56/164/3
f 24/154/4 72/165/4 84/166/4 49/155/4
f 72/165/4 71/159/4 83/160/4 84/166/4
f 17/116/6 69/167/6 81/168/6 53/117/6
f 69/167/6 70/151/6 82/152/6 81/168/6
f 44/162/4 77/169/4 87/170/4 60/163/4
f 77/169/4 78/147/4 88/150/4 87/170/4
f 53/140/20 81/171/20 88/172/20 59/134/20
f 81/171/13 82/141/13 87/142/13 88/172/13
f 55/128/13 86/173/13 83/174/13 54/129/13
f 86/173/13 85/131/13 84/132/13 83/174/13
f 13/175/18 38/176/18 79/177/18 61/178/18
f 61/178/18 79/177/18 80/120/18 62/119/18
f 31/144/6 76/179/6 86/180/6 55/145/6
f 76/179/6 75/107/6 85/110/6 86/180/6
f 43/181/13 78/182/13 76/183/13 31/184/13
f 78/182/13 77/81/13 75/84/13 76/183/13
f 38/185/21 32/186/21 91/187/21 92/188/21
f 79/189/22 73/190/22 74/191/22 80/192/22
f 32/193/11 14/194/11 63/195/11 73/196/11
f 73/196/11 63/195/11 64/74/11 74/73/11
f 14/52/4 16/51/4 67/197/4 63/198/4
f 63/198/4 67/197/4 68/72/4 64/71/4
f 15/50/6 13/49/6 61/199/6 65/200/6
f 65/200/6 61/199/6 62/70/6 66/69/6
f 15/40/9 65/201/9 69/202/9 17/41/9
f 65/201/9 66/63/9 70/64/9 69/202/9
f 22/60/2 68/203/2 72/204/2 24/61/2
f 68/203/2 67/53/2 71/54/2 72/204/2
f 94/205/22 89/80/22 90/79/22 93/206/22
f 92/188/22 91/187/22 95/207/22 96/208/22
f 73/209/23 79/210/23 96/208/23 95/207/23
f 39/211/24 80/212/24 94/205/24 93/206/24
f 79/210/25 38/185/25 92/188/25 96/208/25
f 34/78/26 39/211/26 93/206/26 90/79/26
f 80/212/27 74/77/27 89/80/27 94/205/27
f 32/186/28 73/209/28 95/207/28 91/187/28
