# Blender v2.79 (sub 0) OBJ File: 'mesa larga 01.blend'
# www.blender.org
mtllib mesa larga 01.mtl
o Cube
v 5.203893 0.340666 -3.114517
v 5.207027 0.340666 0.816750
v -11.823381 0.340666 0.811359
v -11.823376 0.340666 -3.112183
v 5.267112 1.000000 -3.172827
v 5.267111 1.000000 0.898435
v -11.924830 1.000000 0.898434
v -11.924829 1.000000 -3.172828
v 4.569180 0.340666 -3.114517
v -11.188573 0.340666 -3.112183
v 4.566046 0.340666 0.816750
v -11.188567 0.340666 0.811359
v 4.370541 1.000000 -3.172828
v -10.985605 1.000000 -3.172828
v 4.370541 1.000000 0.898434
v -10.985605 1.000000 0.898434
v 5.203893 0.340666 -2.549575
v 5.207027 0.340666 0.215949
v -11.823381 0.340666 0.221339
v -11.823376 0.340666 -2.551910
v 5.267112 1.000000 -2.372771
v 5.267112 1.000000 0.032700
v -11.924830 1.000000 0.032699
v -11.924829 1.000000 -2.372772
v 4.370541 1.000000 -2.372771
v 4.370541 1.000000 0.032699
v -10.985605 1.000000 -2.372771
v -10.985605 1.000000 0.032699
v 4.566046 0.340666 0.215949
v 4.569180 0.340666 -2.549576
v -11.188567 0.340666 0.221339
v -11.188573 0.340666 -2.551910
v -11.714174 -3.687183 0.715049
v -11.286604 -3.687183 0.715049
v -11.714174 -3.687183 0.317649
v -11.286604 -3.687183 0.317649
v -11.708076 -3.687874 -3.020377
v -11.281310 -3.687874 -3.020377
v -11.708076 -3.687874 -2.643716
v -11.281310 -3.687874 -2.643716
v 5.079886 -3.687182 0.718680
v 4.648161 -3.687182 0.718680
v 5.079886 -3.687182 0.314019
v 4.648161 -3.687182 0.314019
v 5.071679 -3.706917 -3.021945
v 4.644976 -3.706917 -3.021946
v 5.071679 -3.706917 -2.642147
v 4.644976 -3.706917 -2.642147
v 5.356237 0.846335 -3.250114
v 5.356967 0.846335 0.957292
v -11.979042 0.846335 0.956035
v -11.979040 0.846335 -3.249571
v 4.416836 0.846335 -3.250115
v -11.032909 0.846335 -3.249571
v 4.416105 0.846335 0.957291
v -11.032908 0.846335 0.956035
v -11.979042 0.846335 0.076664
v -11.979040 0.846335 -2.414522
v 5.356237 0.846335 -2.413977
v 5.356968 0.846335 0.075408
vt 0.043893 0.471971
vt 0.009715 0.470772
vt 0.023203 0.254058
vt 0.046223 0.254866
vt 0.047682 0.551815
vt 0.000226 0.551815
vt 0.000226 0.508072
vt 0.047682 0.508072
vt 0.823671 0.486554
vt 0.825830 0.495547
vt 0.782087 0.495547
vt 0.779113 0.486553
vt 0.051684 0.497593
vt 0.054591 0.507617
vt 0.003017 0.507003
vt 0.000226 0.498151
vt 0.829469 0.231700
vt 0.831578 0.239933
vt 0.791154 0.239933
vt 0.787276 0.231700
vt 0.051943 0.010651
vt 0.044003 0.036187
vt 0.010088 0.038059
vt 0.000226 0.010524
vt 0.786824 0.009949
vt 0.777774 0.037138
vt 0.743808 0.036206
vt 0.736025 0.010587
vt 0.778661 0.497600
vt 0.773995 0.506574
vt 0.724124 0.507615
vt 0.726864 0.497464
vt 0.868883 0.551813
vt 0.823581 0.551813
vt 0.823581 0.508069
vt 0.868883 0.508069
vt 0.768931 0.469955
vt 0.734579 0.472024
vt 0.725977 0.255826
vt 0.749115 0.254433
vt 0.828340 0.882591
vt 0.828332 0.912947
vt 0.032294 0.912477
vt 0.032302 0.882666
vt 0.828540 0.714311
vt 0.828533 0.742856
vt 0.032336 0.742542
vt 0.032343 0.714234
vt 0.764753 0.253606
vt 0.741918 0.252979
vt 0.860603 0.742864
vt 0.860727 0.882598
vt 0.823581 0.713781
vt 0.047683 0.713780
vt 0.047683 0.673356
vt 0.823581 0.673356
vt 0.868882 0.713781
vt 0.868882 0.673356
vt 0.999774 0.231700
vt 0.996863 0.239933
vt 0.953120 0.239933
vt 0.955342 0.231700
vt 0.991701 0.486561
vt 0.987796 0.495536
vt 0.947371 0.495536
vt 0.949453 0.486560
vt 0.000227 0.713780
vt 0.000227 0.673356
vt 0.854559 0.203320
vt 0.822527 0.204967
vt 0.817888 0.001334
vt 0.839423 0.000226
vt 0.000226 0.882658
vt 0.000261 0.742534
vt 0.882783 0.735132
vt 0.882783 0.755212
vt 0.861179 0.755212
vt 0.861179 0.735132
vt 0.992464 0.204967
vt 0.962652 0.204967
vt 0.967518 0.001376
vt 0.987597 0.001376
vt 0.930618 0.203332
vt 0.945942 0.000275
vt 0.075676 0.471552
vt 0.067631 0.254584
vt 0.882742 0.775307
vt 0.882742 0.794338
vt 0.861179 0.794338
vt 0.861179 0.775307
vt 0.050936 0.251739
vt 0.028136 0.252998
vt 0.794218 0.204967
vt 0.798856 0.001334
vt 0.073979 0.035906
vt 0.071089 0.251550
vt 0.882993 0.714234
vt 0.882993 0.734680
vt 0.861179 0.734680
vt 0.861179 0.714234
vt 0.848909 0.458097
vt 0.816572 0.459904
vt 0.811625 0.256285
vt 0.833405 0.255068
vt 0.786215 0.459903
vt 0.791178 0.256284
vt 0.702325 0.472522
vt 0.704253 0.256161
vt 0.882739 0.755664
vt 0.882739 0.774854
vt 0.861179 0.774854
vt 0.861179 0.755664
vt 0.984851 0.459876
vt 0.956306 0.459875
vt 0.960992 0.255255
vt 0.980182 0.255256
vt 0.713567 0.036633
vt 0.721587 0.253267
vt 0.924286 0.458095
vt 0.939465 0.254058
vt 0.733260 0.000226
vt 0.054792 0.000230
vt 0.782194 0.000777
vt 0.002976 0.001171
vn 0.0000 -0.0239 0.9997
vn 0.0000 1.0000 0.0000
vn 0.8632 0.5048 0.0000
vn -0.0000 0.3510 0.9364
vn -0.9430 0.3327 0.0000
vn 0.0000 -0.2622 -0.9650
vn 0.0000 -0.2590 -0.9659
vn -0.0001 -0.2606 -0.9654
vn -0.0000 0.3577 0.9338
vn -0.0000 0.3543 0.9351
vn 0.0000 -0.0243 0.9997
vn 0.0000 -1.0000 0.0000
vn 0.0000 -0.0229 -0.9997
vn 0.8650 0.5017 0.0000
vn 0.8641 0.5033 -0.0001
vn 0.0000 -0.0228 0.9997
vn -0.9996 -0.0271 0.0000
vn 0.0000 -0.0239 -0.9997
vn 0.9997 -0.0243 0.0000
vn 0.0000 -0.0228 -0.9997
vn -0.9996 -0.0286 0.0000
vn 0.9997 -0.0230 0.0000
vn 0.0000 -0.0243 -0.9997
vn 0.9995 -0.0315 0.0000
vn -0.9998 -0.0204 0.0000
vn 0.9995 -0.0326 0.0000
vn -0.9998 -0.0187 0.0000
vn -0.0000 -0.0229 0.9997
vn 0.9581 -0.2864 -0.0007
vn 0.9575 -0.2885 0.0000
vn -0.9557 -0.2942 -0.0000
vn -0.0002 -0.2714 0.9625
vn -0.0000 -0.2678 0.9635
vn -0.0000 0.4481 -0.8940
vn 0.0000 0.4493 -0.8934
vn 0.0000 0.4468 -0.8946
vn -0.0000 -0.2751 0.9614
vn 0.9587 -0.2843 0.0000
usemtl Material
s off
f 12/1/1 3/2/1 33/3/1 34/4/1
f 28/5/2 23/6/2 7/7/2 16/8/2
f 60/9/3 22/10/3 6/11/3 50/12/3
f 56/13/4 16/14/4 7/15/4 51/16/4
f 58/17/5 24/18/5 8/19/5 52/20/5
f 54/21/6 10/22/6 4/23/6 52/24/6
f 49/25/7 1/26/7 9/27/7 53/28/7
f 53/28/8 9/27/8 10/22/8 54/21/8
f 50/29/9 6/30/9 15/31/9 55/32/9
f 55/32/10 15/31/10 16/14/10 56/13/10
f 22/33/2 26/34/2 15/35/2 6/36/2
f 26/34/2 28/5/2 16/8/2 15/35/2
f 2/37/11 11/38/11 42/39/11 41/40/11
f 29/41/12 11/42/12 12/43/12 31/44/12
f 9/45/12 30/46/12 32/47/12 10/48/12
f 30/46/12 29/41/12 31/44/12 32/47/12
f 9/27/13 1/26/13 45/49/13 46/50/13
f 17/51/12 18/52/12 29/41/12 30/46/12
f 13/53/2 14/54/2 27/55/2 25/56/2
f 25/56/2 27/55/2 28/5/2 26/34/2
f 5/57/2 13/53/2 25/56/2 21/58/2
f 21/58/2 25/56/2 26/34/2 22/33/2
f 51/59/5 7/60/5 23/61/5 57/62/5
f 57/62/5 23/61/5 24/18/5 58/17/5
f 49/63/14 5/64/14 21/65/14 59/66/14
f 59/66/15 21/65/15 22/10/15 60/9/15
f 14/54/2 8/67/2 24/68/2 27/55/2
f 27/55/2 24/68/2 23/6/2 28/5/2
f 32/69/16 20/70/16 39/71/16 40/72/16
f 32/47/12 31/44/12 19/73/12 20/74/12
f 36/75/12 34/76/12 33/77/12 35/78/12
f 3/79/17 19/80/17 35/81/17 33/82/17
f 19/80/18 31/83/18 36/84/18 35/81/18
f 31/85/19 12/1/19 34/4/19 36/86/19
f 38/87/12 40/88/12 39/89/12 37/90/12
f 4/23/20 10/22/20 38/91/20 37/92/20
f 20/70/21 4/93/21 37/94/21 39/71/21
f 10/22/22 32/95/22 40/96/22 38/91/22
f 43/97/12 41/98/12 42/99/12 44/100/12
f 29/101/23 18/102/23 43/103/23 44/104/23
f 18/102/24 2/105/24 41/106/24 43/103/24
f 11/38/25 29/107/25 44/108/25 42/39/25
f 45/109/12 47/110/12 48/111/12 46/112/12
f 1/113/26 17/114/26 47/115/26 45/116/26
f 30/117/27 9/27/27 46/50/27 48/118/27
f 17/114/28 30/119/28 48/120/28 47/115/28
f 17/114/29 59/66/29 60/9/29 18/102/29
f 1/113/30 49/63/30 59/66/30 17/114/30
f 19/80/31 57/62/31 58/17/31 20/70/31
f 3/79/31 51/59/31 57/62/31 19/80/31
f 11/38/32 55/32/32 56/13/32 12/1/32
f 2/37/33 50/29/33 55/32/33 11/38/33
f 13/121/34 53/28/34 54/21/34 14/122/34
f 5/123/35 49/25/35 53/28/35 13/121/35
f 14/122/36 54/21/36 52/24/36 8/124/36
f 20/70/31 58/17/31 52/20/31 4/93/31
f 12/1/37 56/13/37 51/16/37 3/2/37
f 18/102/38 60/9/38 50/12/38 2/105/38
