# Blender v2.77 (sub 0) OBJ File: 'palanca01.blend'
# www.blender.org
mtllib palanca01.mtl
o Cube
v 1.000000 -0.761658 -0.329416
v 1.000000 -0.761658 0.192131
v -0.908330 -0.761658 0.192131
v -0.908330 -0.761658 -0.329416
v 1.000000 -0.713125 -0.329415
v 0.999999 -0.713125 0.192131
v -0.908330 -0.713125 0.192130
v -0.908330 -0.713125 -0.329416
v 0.905881 -0.541984 -0.330340
v 0.905880 -0.541984 0.193056
v -0.814211 -0.541984 0.193055
v -0.814211 -0.541984 -0.330340
v 0.685818 -0.277126 -0.332044
v 0.685817 -0.277126 0.194760
v -0.594148 -0.277126 0.194760
v -0.594148 -0.277126 -0.332045
v 0.248345 -0.146009 -0.327547
v 0.248345 -0.146009 0.190263
v -0.172516 -0.146009 0.190263
v -0.172516 -0.146009 -0.327548
v 1.000000 -0.761658 -0.329416
v 1.000000 -0.761658 0.192131
v -0.908330 -0.761658 -0.329416
v -0.908330 -0.761658 0.192131
v 0.743474 -0.762688 0.192217
v -0.652616 -0.762688 0.192217
v 0.743473 -0.714693 0.192218
v -0.652616 -0.714693 0.192217
v 0.673460 -0.550316 0.192905
v -0.582603 -0.550316 0.192905
v 0.509760 -0.339207 0.194173
v -0.418902 -0.339207 0.194173
v 0.184333 -0.241671 0.190828
v -0.105258 -0.241671 0.190828
v 0.743474 -0.763283 0.086527
v -0.652616 -0.763283 0.086527
v 0.743474 -0.715288 0.086528
v -0.652616 -0.715288 0.086527
v 0.673460 -0.550912 0.087216
v -0.582603 -0.550912 0.087215
v 0.509760 -0.339803 0.088484
v -0.418902 -0.339803 0.088483
v 0.184333 -0.242267 0.085138
v -0.105258 -0.242267 0.085138
v 0.387538 -0.761684 0.086647
v -0.297806 -0.761684 0.086647
v 0.387538 -0.709396 0.086648
v -0.297806 -0.709396 0.086647
v 0.350972 -0.562473 0.087007
v -0.261240 -0.562473 0.087006
v 0.265476 -0.480943 0.087669
v -0.175744 -0.480943 0.087669
v 0.095515 -0.404539 0.085922
v -0.011937 -0.404539 0.085922
v 0.387538 -0.761237 0.165848
v -0.297806 -0.761237 0.165848
v 0.387538 -0.708950 0.165848
v -0.297806 -0.708950 0.165848
v 0.350972 -0.562027 0.166207
v -0.261240 -0.562027 0.166207
v 0.265476 -0.480496 0.166869
v -0.175744 -0.480496 0.166869
v 0.095515 -0.404092 0.165122
v -0.011937 -0.404092 0.165122
v 0.252716 -0.759699 0.165893
v -0.163410 -0.759699 0.165893
v 0.252716 -0.704607 0.165893
v -0.163410 -0.704607 0.165893
v 0.228819 -0.566406 0.166128
v -0.139514 -0.566406 0.166128
v 0.172946 -0.513124 0.166561
v -0.083640 -0.513124 0.166560
v 0.061872 -0.479834 0.165419
v 0.023412 -0.479834 0.165419
v 0.252716 -0.759848 0.139493
v -0.163410 -0.759848 0.139493
v 0.252716 -0.704756 0.139493
v -0.163410 -0.704756 0.139493
v 0.228819 -0.566555 0.139728
v -0.139514 -0.566555 0.139728
v 0.172946 -0.513273 0.140161
v -0.083640 -0.513273 0.140160
v 0.061872 -0.479982 0.139019
v 0.023412 -0.479982 0.139019
v 1.000000 -0.761658 -0.155567
v 1.000000 -0.761658 0.018282
v -0.908330 -0.761658 0.018282
v -0.908330 -0.761658 -0.155567
v 1.000000 -0.713125 -0.155566
v 1.000000 -0.713125 0.018283
v -0.908330 -0.713125 0.018282
v -0.908330 -0.713125 -0.155567
v 0.905881 -0.541984 -0.155875
v 0.905881 -0.541984 0.018591
v -0.814211 -0.541984 0.018590
v -0.814211 -0.541984 -0.155875
v 0.685818 -0.277126 -0.156443
v 0.685817 -0.277126 0.019159
v -0.594148 -0.277126 0.019158
v -0.594148 -0.277126 -0.156443
v 0.248345 -0.146009 -0.154944
v 0.248345 -0.146009 0.017660
v -0.172516 -0.146009 0.017659
v -0.172516 -0.146009 -0.154944
v 1.000000 -0.761658 -0.155567
v 1.000000 -0.761658 0.018282
v -0.908330 -0.761658 0.018282
v -0.908330 -0.761658 -0.155567
v 0.794875 -0.645707 -0.137771
v 0.794875 -0.645707 0.000487
v -0.704016 -0.645707 0.000487
v -0.704016 -0.645707 -0.137772
v 0.720024 -0.526868 -0.138016
v 0.720024 -0.526868 0.000732
v -0.629165 -0.526868 0.000732
v -0.629165 -0.526868 -0.138017
v 0.545012 -0.304972 -0.138468
v 0.545012 -0.304972 0.001184
v -0.454153 -0.304972 0.001184
v -0.454153 -0.304972 -0.138469
v 0.197098 -0.200697 -0.137276
v 0.197098 -0.200697 -0.000008
v -0.118837 -0.200697 -0.000008
v -0.118837 -0.200697 -0.137277
vt 0.1093 0.1540
vt 0.0861 0.1463
vt 0.0911 0.1499
vt 0.1137 0.1549
vt 0.0002 0.0975
vt 0.0136 0.1102
vt 0.0189 0.1273
vt 0.0003 0.1313
vt 0.0998 0.1641
vt 0.0808 0.1476
vt 0.4718 0.0297
vt 0.4424 0.0651
vt 0.4188 0.0568
vt 0.4407 0.0286
vt 0.0182 0.0697
vt 0.0121 0.0624
vt 0.0378 0.0570
vt 0.0380 0.0620
vt 0.4759 0.1564
vt 0.4759 0.1626
vt 0.2290 0.1626
vt 0.2290 0.1564
vt 0.4638 0.1342
vt 0.2412 0.1342
vt 0.2697 0.1000
vt 0.4353 0.1000
vt 0.4844 0.0068
vt 0.4501 0.0066
vt 0.1628 0.1641
vt 0.1768 0.1385
vt 0.1857 0.1218
vt 0.2105 0.1451
vt 0.3838 0.0827
vt 0.3753 0.0699
vt 0.4844 0.0003
vt 0.4501 0.0002
vt 0.1969 0.0831
vt 0.2287 0.0781
vt 0.0310 0.1432
vt 0.0258 0.1528
vt 0.0433 0.1460
vt 0.0417 0.1498
vt 0.0408 0.1462
vt 0.0438 0.1458
vt 0.1663 0.0502
vt 0.1794 0.0316
vt 0.3242 0.0830
vt 0.3787 0.0830
vt 0.1182 0.1557
vt 0.0151 0.1048
vt 0.0109 0.0885
vt 0.0383 0.0623
vt 0.0190 0.0699
vt 0.0158 0.1060
vt 0.4759 0.1670
vt 0.2290 0.1670
vt 0.2594 0.4489
vt 0.2355 0.4486
vt 0.2355 0.4345
vt 0.2594 0.4347
vt 0.4590 0.4489
vt 0.4233 0.4492
vt 0.4233 0.4350
vt 0.4590 0.4347
vt 0.4894 0.4486
vt 0.4829 0.4486
vt 0.4829 0.4345
vt 0.4894 0.4345
vt 0.3778 0.4488
vt 0.3778 0.4347
vt 0.3275 0.0827
vt 0.2711 0.0651
vt 0.2945 0.0568
vt 0.3365 0.0699
vt 0.2416 0.0297
vt 0.2290 0.0068
vt 0.2633 0.0066
vt 0.2726 0.0286
vt 0.2290 0.0003
vt 0.2633 0.0002
vt 0.0489 0.1307
vt 0.0490 0.1308
vt 0.2384 0.3448
vt 0.2290 0.3228
vt 0.2765 0.3236
vt 0.2814 0.3432
vt 0.4065 0.3448
vt 0.3846 0.3730
vt 0.3519 0.3541
vt 0.3633 0.3432
vt 0.4159 0.3163
vt 0.4159 0.3228
vt 0.3682 0.3236
vt 0.3682 0.3166
vt 0.3410 0.3861
vt 0.3291 0.3643
vt 0.3391 0.4488
vt 0.2951 0.4492
vt 0.2951 0.4350
vt 0.3391 0.4347
vt 0.2290 0.4486
vt 0.2290 0.4345
vt 0.2290 0.4495
vt 0.4159 0.4495
vt 0.4159 0.4636
vt 0.2290 0.4636
vt 0.2963 0.4747
vt 0.2721 0.4745
vt 0.2721 0.4639
vt 0.2963 0.4641
vt 0.2563 0.4747
vt 0.2360 0.4748
vt 0.2360 0.4642
vt 0.2563 0.4641
vt 0.3514 0.4747
vt 0.3356 0.4745
vt 0.3356 0.4639
vt 0.3514 0.4641
vt 0.3787 0.4749
vt 0.3717 0.4748
vt 0.3717 0.4642
vt 0.3787 0.4643
vt 0.3023 0.3861
vt 0.2603 0.3730
vt 0.2928 0.3541
vt 0.3148 0.3643
vt 0.2290 0.3163
vt 0.2765 0.3166
vt 0.3211 0.4323
vt 0.3796 0.4333
vt 0.3211 0.4333
vt 0.3210 0.4323
vt 0.2454 0.4239
vt 0.2339 0.4130
vt 0.2502 0.4124
vt 0.2577 0.4196
vt 0.2290 0.3934
vt 0.2290 0.3864
vt 0.2470 0.3866
vt 0.2470 0.3939
vt 0.2673 0.4342
vt 0.2720 0.4240
vt 0.2290 0.4749
vt 0.2290 0.4643
vt 0.3107 0.4747
vt 0.3107 0.4641
vt 0.3790 0.4639
vt 0.4707 0.4639
vt 0.4707 0.4745
vt 0.3790 0.4745
vt 0.4066 0.4320
vt 0.3866 0.4320
vt 0.3866 0.4282
vt 0.4066 0.4282
vt 0.3395 0.4275
vt 0.3316 0.4209
vt 0.3343 0.4186
vt 0.3411 0.4246
vt 0.3233 0.4039
vt 0.3210 0.3962
vt 0.3248 0.3951
vt 0.3268 0.4026
vt 0.3535 0.4317
vt 0.3539 0.4281
vt 0.3207 0.3934
vt 0.3159 0.4130
vt 0.2995 0.4124
vt 0.3027 0.3939
vt 0.2817 0.4342
vt 0.2772 0.4240
vt 0.3799 0.4323
vt 0.4216 0.4330
vt 0.3799 0.4330
vt 0.3799 0.4323
vt 0.3044 0.4239
vt 0.2920 0.4196
vt 0.3207 0.3864
vt 0.3027 0.3866
vt 0.3809 0.3864
vt 0.3821 0.3938
vt 0.3810 0.4145
vt 0.3738 0.4225
vt 0.3590 0.4280
vt 0.3590 0.4318
vt 0.4148 0.3864
vt 0.4705 0.3864
vt 0.4705 0.3899
vt 0.4148 0.3899
vt 0.3755 0.4320
vt 0.3756 0.4282
vt 0.4145 0.4320
vt 0.4145 0.4283
vt 0.0087 0.0932
vt 0.0098 0.0908
vt 0.1638 0.1400
vt 0.1479 0.1504
vt 0.0197 0.0702
vt 0.0385 0.0626
vt 0.0805 0.0245
vt 0.0749 0.0002
vt 0.1312 0.0102
vt 0.1252 0.0301
vt 0.4743 0.2189
vt 0.4874 0.2415
vt 0.4596 0.2332
vt 0.4492 0.2175
vt 0.0463 0.1465
vt 0.0409 0.1519
vt 0.2290 0.2415
vt 0.2422 0.2189
vt 0.2671 0.2175
vt 0.2567 0.2332
vt 0.3853 0.1673
vt 0.4441 0.1841
vt 0.4252 0.1883
vt 0.3785 0.1750
vt 0.0476 0.0427
vt 0.0261 0.0265
vt 0.4743 0.2644
vt 0.4441 0.2992
vt 0.4252 0.2950
vt 0.4492 0.2658
vt 0.0625 0.1517
vt 0.0627 0.1699
vt 0.1628 0.9998
vt 0.0998 0.9998
vt 0.1062 0.9219
vt 0.1563 0.9219
vt 0.2422 0.2644
vt 0.2290 0.2418
vt 0.2567 0.2501
vt 0.2671 0.2658
vt 0.1651 0.1393
vt 0.1528 0.1527
vt 0.2724 0.1841
vt 0.3290 0.1673
vt 0.3362 0.1749
vt 0.2911 0.1883
vt 0.1504 0.1515
vt 0.1603 0.1431
vt 0.1566 0.7687
vt 0.1060 0.7687
vt 0.1064 0.6415
vt 0.1561 0.6415
vt 0.1060 0.3955
vt 0.1566 0.3955
vt 0.1561 0.5271
vt 0.1064 0.5271
vt 0.1564 0.8710
vt 0.1061 0.8710
vt 0.1061 0.2931
vt 0.1564 0.2931
vt 0.1062 0.2423
vt 0.1563 0.2423
vt 0.3853 0.3160
vt 0.3785 0.3083
vt 0.4874 0.2418
vt 0.4596 0.2501
vt 0.3290 0.3160
vt 0.3362 0.3083
vt 0.2724 0.2992
vt 0.2911 0.2950
vn 0.0000 0.0000 1.0000
vn -0.8762 0.4819 -0.0000
vn 1.0000 0.0000 0.0000
vn -0.0006 -0.0068 1.0000
vn -1.0000 -0.0000 -0.0000
vn 0.0000 0.0000 -1.0000
vn 0.0000 -0.0064 -1.0000
vn 0.0000 -0.0054 -1.0000
vn -0.0000 -0.0048 1.0000
vn 0.8762 0.4819 0.0000
vn -0.0071 0.0106 0.9999
vn 0.0003 -0.0000 1.0000
vn 0.7692 0.6391 0.0000
vn -0.7692 0.6391 -0.0000
vn 0.0000 1.0000 0.0000
vn 0.2871 0.9579 0.0000
vn -0.2969 0.9549 -0.0000
vn 0.0000 0.0343 -0.9994
vn 0.0000 -1.0000 0.0000
vn 0.9200 -0.3919 0.0022
vn -0.7902 -0.6128 0.0035
vn -0.2871 -0.9579 0.0054
vn 0.0072 0.0110 0.9999
vn -0.0003 0.0000 1.0000
vn -0.0000 0.0059 1.0000
vn 0.0000 -0.0837 -0.9965
vn 0.0006 -0.0068 1.0000
vn 0.0001 -0.0034 1.0000
vn -0.0000 -0.0066 1.0000
vn -0.0074 0.0081 0.9999
vn 0.2970 -0.9549 0.0054
vn 0.7902 -0.6128 0.0035
vn -0.9200 -0.3919 0.0022
vn -0.0000 -1.0000 0.0056
vn 0.0000 1.0000 -0.0056
vn -0.4227 0.9062 -0.0051
vn -0.9704 0.2415 -0.0014
vn 0.6901 0.7237 -0.0041
vn 0.0076 0.0084 0.9999
vn -0.0001 -0.0034 1.0000
vn -0.0000 0.0048 1.0000
vn -0.0000 -0.0747 0.9972
vn 0.0003 -0.0085 1.0000
vn 0.0073 0.0084 0.9999
vn 0.0001 -0.0021 1.0000
vn -0.6901 0.7237 -0.0041
vn 0.9704 0.2415 -0.0014
vn 0.4101 0.9120 -0.0051
vn -0.9854 -0.1704 0.0010
vn 0.6901 -0.7237 0.0041
vn -0.0001 -0.0021 1.0000
vn -0.0000 0.0039 1.0000
vn -0.0000 -0.0295 0.9996
vn -0.0071 0.0082 0.9999
vn -0.0003 -0.0085 1.0000
vn -0.0000 -0.0017 1.0000
vn -0.0000 0.0343 0.9994
vn -0.0000 -0.0081 1.0000
vn -0.6901 -0.7237 0.0041
vn 0.9854 -0.1704 0.0010
vn 0.1037 0.0623 -0.9927
vn -0.1042 0.0626 -0.9926
vn 0.0757 0.2416 -0.9674
vn 0.1053 0.0875 0.9906
vn -0.3134 0.9496 -0.0000
vn -0.1042 0.0626 0.9926
vn -0.0772 0.2371 -0.9684
vn -0.7852 0.6193 -0.0000
vn 0.7852 0.6193 0.0000
vn 0.8461 0.5329 0.0000
vn -0.8461 0.5329 -0.0000
vn 0.0757 0.2416 0.9674
vn 0.1037 0.0623 0.9927
vn -0.0000 0.3074 0.9516
vn 0.0000 0.3074 -0.9516
vn -0.1058 0.0879 0.9905
vn 0.3122 0.9500 0.0000
vn -0.1058 0.0879 -0.9905
vn -0.0772 0.2371 0.9684
vn 0.1053 0.0875 -0.9906
usemtl Material
s off
f 86/1/1 2/2/1 22/3/1 106/4/1
f 91/5/2 7/6/2 11/7/2 95/8/2
f 86/1/3 90/9/3 6/10/3 2/2/3
f 10/11/4 14/12/4 31/13/4 29/14/4
f 88/15/5 92/16/5 8/17/5 4/18/5
f 5/19/6 1/20/6 4/21/6 8/22/6
f 9/23/7 12/24/7 16/25/7 13/26/7
f 5/19/8 8/22/8 12/24/8 9/23/8
f 6/27/9 10/11/9 29/14/9 27/28/9
f 89/29/10 5/30/10 9/31/10 93/32/10
f 14/12/11 18/33/11 33/34/11 31/13/11
f 2/35/12 6/27/12 27/28/12 25/36/12
f 93/32/13 9/31/13 13/37/13 97/38/13
f 95/8/14 11/7/14 15/39/14 99/40/14
f 102/41/15 103/42/15 19/43/15 18/44/15
f 97/38/16 13/37/16 17/45/16 101/46/16
f 99/40/17 15/39/17 19/43/17 103/42/17
f 13/26/18 16/25/18 20/47/18 17/48/18
f 106/49/19 22/3/19 24/50/19 107/51/19
f 88/15/1 4/18/1 23/52/1 108/53/1
f 2/2/1 3/54/1 24/50/1 22/3/1
f 4/21/1 1/20/1 21/55/1 23/56/1
f 30/57/20 28/58/20 38/59/20 40/60/20
f 29/61/21 31/62/21 41/63/21 39/64/21
f 25/65/5 27/66/5 37/67/5 35/68/5
f 31/62/22 33/69/22 43/70/22 41/63/22
f 19/71/23 15/72/23 32/73/23 34/74/23
f 11/75/9 7/76/9 28/77/9 30/78/9
f 7/76/24 3/79/24 26/80/24 28/77/24
f 18/33/25 19/71/25 34/74/25 33/34/25
f 3/54/26 2/2/26 25/81/26 26/82/26
f 15/72/27 11/75/27 30/78/27 32/73/27
f 40/83/28 38/84/28 48/85/28 50/86/28
f 39/87/29 41/88/29 51/89/29 49/90/29
f 35/91/12 37/92/12 47/93/12 45/94/12
f 41/88/30 43/95/30 53/96/30 51/89/30
f 34/97/31 32/98/31 42/99/31 44/100/31
f 28/58/3 26/101/3 36/102/3 38/59/3
f 32/98/32 30/57/32 40/60/32 42/99/32
f 27/66/33 29/61/33 39/64/33 37/67/33
f 33/69/34 34/97/34 44/100/34 43/70/34
f 26/103/35 25/104/35 35/105/35 36/106/35
f 54/107/36 52/108/36 62/109/36 64/110/36
f 50/111/37 48/112/37 58/113/37 60/114/37
f 49/115/38 51/116/38 61/117/38 59/118/38
f 45/119/3 47/120/3 57/121/3 55/122/3
f 44/123/39 42/124/39 52/125/39 54/126/39
f 38/84/24 36/127/24 46/128/24 48/85/24
f 42/124/29 40/83/29 50/86/29 52/125/29
f 37/92/40 39/87/40 49/90/40 47/93/40
f 43/95/41 44/123/41 54/126/41 53/96/41
f 36/129/42 35/130/42 45/131/42 46/132/42
f 62/133/43 60/134/43 70/135/43 72/136/43
f 58/137/24 56/138/24 66/139/24 68/140/24
f 64/141/44 62/133/44 72/136/44 74/142/44
f 60/134/45 58/137/45 68/140/45 70/135/45
f 48/112/5 46/143/5 56/144/5 58/113/5
f 52/108/46 50/111/46 60/114/46 62/109/46
f 47/120/47 49/115/47 59/118/47 57/121/47
f 53/145/35 54/107/35 64/110/35 63/146/35
f 46/147/34 45/148/34 55/149/34 56/150/34
f 51/116/48 53/145/48 63/146/48 61/117/48
f 67/151/49 69/152/49 79/153/49 77/154/49
f 72/155/50 70/156/50 80/157/50 82/158/50
f 68/159/3 66/160/3 76/161/3 78/162/3
f 74/163/31 72/155/31 82/158/31 84/164/31
f 57/165/51 59/166/51 69/167/51 67/168/51
f 63/169/52 64/141/52 74/142/52 73/170/52
f 56/171/53 55/172/53 65/173/53 66/174/53
f 61/175/54 63/169/54 73/170/54 71/176/54
f 55/177/12 57/165/12 67/168/12 65/178/12
f 59/166/55 61/175/55 71/176/55 69/167/55
f 75/179/1 77/180/1 78/162/1 76/161/1
f 78/162/56 77/180/56 79/181/56 80/157/56
f 82/158/57 81/182/57 83/183/57 84/164/57
f 80/157/58 79/181/58 81/182/58 82/158/58
f 73/184/34 74/163/34 84/164/34 83/183/34
f 66/185/35 65/186/35 75/187/35 76/188/35
f 71/189/22 73/184/22 83/183/22 81/190/22
f 65/191/5 67/151/5 77/154/5 75/192/5
f 69/152/59 71/189/59 81/190/59 79/153/59
f 70/156/60 68/159/60 78/162/60 80/157/60
f 3/54/1 87/193/1 107/194/1 24/50/1
f 87/193/1 88/15/1 108/53/1 107/194/1
f 21/195/19 105/196/19 108/197/19 23/198/19
f 105/196/19 106/49/19 107/51/19 108/197/19
f 16/199/17 100/200/17 104/201/17 20/202/17
f 94/203/61 90/204/61 110/205/61 114/206/61
f 14/207/16 98/208/16 102/41/16 18/44/16
f 91/209/62 95/210/62 115/211/62 111/212/62
f 17/45/15 20/202/15 104/201/15 101/46/15
f 102/213/63 98/214/63 118/215/63 122/216/63
f 12/217/14 96/218/14 100/200/14 16/199/14
f 93/219/64 97/220/64 117/221/64 113/222/64
f 10/223/13 94/224/13 98/208/13 14/207/13
f 92/225/65 91/226/65 111/227/65 112/228/65
f 6/10/10 90/9/10 94/224/10 10/223/10
f 96/229/66 92/230/66 112/231/66 116/232/66
f 3/54/5 7/6/5 91/5/5 87/193/5
f 87/193/5 91/5/5 92/16/5 88/15/5
f 1/233/3 5/30/3 89/29/3 85/234/3
f 85/234/3 89/29/3 90/9/3 86/1/3
f 8/17/2 92/16/2 96/218/2 12/217/2
f 99/235/67 103/236/67 123/237/67 119/238/67
f 1/233/1 85/234/1 105/239/1 21/240/1
f 85/234/1 86/1/1 106/4/1 105/239/1
f 120/241/17 119/242/17 123/243/17 124/244/17
f 118/245/16 117/246/16 121/247/16 122/248/16
f 121/247/15 124/244/15 123/243/15 122/248/15
f 116/249/68 115/250/68 119/242/68 120/241/68
f 114/251/69 113/252/69 117/246/69 118/245/69
f 110/253/70 109/254/70 113/252/70 114/251/70
f 112/228/71 111/227/71 115/250/71 116/249/71
f 97/220/72 101/255/72 121/256/72 117/221/72
f 89/257/73 93/219/73 113/222/73 109/258/73
f 101/255/74 104/259/74 124/260/74 121/256/74
f 103/236/75 102/213/75 122/216/75 123/237/75
f 100/261/76 96/229/76 116/232/76 120/262/76
f 90/9/77 89/29/77 109/254/77 110/253/77
f 95/210/78 99/235/78 119/238/78 115/211/78
f 104/259/79 100/261/79 120/262/79 124/260/79
f 98/214/80 94/203/80 114/206/80 118/215/80
