# Blender v2.77 (sub 0) OBJ File: 'SILLA.blend'
# www.blender.org
mtllib SILLA.mtl
o Cube
v 1.000000 -1.000000 -0.614819
v 1.000000 -1.000000 1.000000
v -1.000000 -1.000000 1.000000
v -1.000000 -1.000000 -0.614819
v 1.000000 -0.829610 -0.614818
v 0.999999 -0.829610 1.000001
v -1.000000 -0.749235 1.000000
v -1.000000 -0.749235 -0.614819
v 1.000000 -1.000000 -0.455844
v 1.000000 -1.000000 0.828717
v -1.000000 -1.000000 0.828716
v -1.000000 -1.000000 -0.455845
v 1.000000 -0.829610 -0.455844
v 1.000000 -0.829610 0.828717
v -1.000000 -0.749235 0.828717
v -1.000000 -0.749235 -0.455844
v -0.835897 -1.000000 -0.614819
v -0.835898 -1.000000 1.000000
v -0.835897 -0.749235 -0.614819
v -0.835898 -0.749235 1.000000
v -0.835897 -0.749235 -0.455844
v -0.835898 -0.749235 0.828717
v -0.835897 -1.000000 -0.455845
v -0.835897 -1.000000 0.828716
v -0.969855 0.069395 -0.614819
v -1.133958 0.069395 -0.614819
v -0.969856 0.069395 1.000000
v -1.133958 0.069395 1.000000
v -1.133958 0.069395 -0.455844
v -1.133958 0.069395 0.828717
v -0.969855 0.069395 -0.455844
v -0.969855 0.069395 0.828717
v -0.944735 0.069395 1.026219
v -1.159078 0.069395 1.026219
v -1.159078 0.069395 0.802497
v -0.944735 0.069395 0.802497
v -0.944735 0.813605 1.026219
v -1.159078 0.813605 1.026219
v -1.159078 0.813605 0.802497
v -0.944735 0.813605 0.802497
v -1.159078 0.069395 -0.638663
v -0.944734 0.069395 -0.638663
v -1.159078 0.813605 -0.638663
v -0.944734 0.813605 -0.638663
v 0.832126 -0.829610 -0.455844
v 0.832126 -0.829610 0.828717
v 0.832126 -1.000000 -0.614819
v 0.832126 -1.000000 1.000000
v 0.832127 -0.829610 -0.614818
v 0.832125 -0.829610 1.000000
v 0.832126 -1.000000 -0.455844
v 0.832126 -1.000000 0.828717
v 1.160492 -2.271592 0.828717
v 1.160492 -2.271592 1.000000
v -1.014908 -2.271592 -0.614819
v -1.179010 -2.271592 -0.614819
v -1.014908 -2.271592 1.000000
v -1.179011 -2.271592 1.000000
v -1.179010 -2.271592 -0.455845
v 1.160492 -2.271592 -0.614819
v 1.160492 -2.271592 -0.455844
v -1.179010 -2.271592 0.828716
v -1.014908 -2.271592 -0.455845
v -1.014908 -2.271592 0.828716
v 0.992618 -2.271592 -0.614819
v 0.992618 -2.271592 1.000000
v 0.992618 -2.271592 -0.455844
v 0.992618 -2.271592 0.828717
vt 0.6877 0.5533
vt 0.6646 0.5533
vt 0.6646 0.3802
vt 0.6877 0.3802
vt 0.3717 0.4845
vt 0.3931 0.4845
vt 0.3931 0.5963
vt 0.3717 0.5963
vt 0.5215 0.5983
vt 0.5215 0.6212
vt 0.4984 0.6212
vt 0.4984 0.5983
vt 0.2510 0.5983
vt 0.2510 0.6321
vt 0.2289 0.6321
vt 0.2289 0.5983
vt 0.0327 0.5983
vt 0.0327 0.6321
vt 0.0113 0.6321
vt 0.0113 0.5983
vt 0.9635 0.6321
vt 0.9635 0.5983
vt 0.9856 0.5983
vt 0.9856 0.6321
vt 0.2058 0.6321
vt 0.2058 0.5983
vt 0.7161 0.5983
vt 0.7161 0.6212
vt 0.6947 0.6212
vt 0.6947 0.5983
vt 0.3264 0.4809
vt 0.3482 0.4845
vt 0.3482 0.5963
vt 0.3264 0.5927
vt 0.0334 0.5765
vt 0.0113 0.5765
vt 0.0113 0.4033
vt 0.0334 0.4033
vt 0.6427 0.5564
vt 0.6196 0.5564
vt 0.6196 0.3833
vt 0.6427 0.3833
vt 0.1470 0.0827
vt 0.0273 0.2077
vt 0.0113 0.1924
vt 0.1310 0.0674
vt 0.3093 0.2382
vt 0.1896 0.3632
vt 0.3242 0.2227
vt 0.1618 0.0672
vt 0.2585 0.5765
vt 0.2585 0.4033
vt 0.2585 0.5979
vt 0.0334 0.5979
vt 0.7387 0.6212
vt 0.7387 0.5983
vt 0.4758 0.5983
vt 0.4758 0.6212
vt 0.0334 0.3802
vt 0.2585 0.3802
vt 0.1736 0.3799
vt 0.0113 0.2243
vt 0.0379 0.6872
vt 0.0379 0.6651
vt 0.0414 0.6617
vt 0.0414 0.6906
vt 0.5518 0.5530
vt 0.5293 0.5558
vt 0.5293 0.3831
vt 0.5518 0.3802
vt 0.3033 0.4809
vt 0.3033 0.5927
vt 0.4364 0.4809
vt 0.4582 0.4845
vt 0.4582 0.5963
vt 0.4364 0.5927
vt 0.3713 0.4845
vt 0.3713 0.5963
vt 0.4149 0.4809
vt 0.4149 0.5927
vt 0.2815 0.4845
vt 0.2815 0.5963
vt 0.0113 0.6613
vt 0.0113 0.6325
vt 0.1116 0.6325
vt 0.1116 0.6613
vt 0.0148 0.6651
vt 0.0113 0.6617
vt 0.0148 0.6872
vt 0.0113 0.6906
vt 0.1417 0.6325
vt 0.1417 0.6613
vt 0.2815 0.3802
vt 0.3116 0.3802
vt 0.3116 0.4805
vt 0.2815 0.4805
vt 0.5995 0.2614
vt 0.5995 0.2916
vt 0.4992 0.2916
vt 0.4992 0.2614
vt 0.5059 0.3802
vt 0.5059 0.4805
vt 0.4363 0.6325
vt 0.4363 0.6613
vt 0.3360 0.6613
vt 0.3360 0.6325
vt 0.4992 0.0672
vt 0.5995 0.0672
vt 0.2357 0.6617
vt 0.2357 0.6906
vt 0.2811 0.4033
vt 0.2811 0.3802
vt 0.2811 0.5979
vt 0.2811 0.5765
vt 0.6213 0.2403
vt 0.5999 0.2403
vt 0.5999 0.0672
vt 0.6213 0.0672
vt 0.3257 0.2538
vt 0.2059 0.3788
vt 0.4817 0.5261
vt 0.4586 0.5261
vt 0.4586 0.5040
vt 0.4817 0.5040
vt 0.5037 0.5265
vt 0.5037 0.5479
vt 0.4816 0.5479
vt 0.4816 0.5265
vt 0.4817 0.5036
vt 0.4586 0.5036
vt 0.4586 0.4809
vt 0.4817 0.4809
vt 0.4812 0.5265
vt 0.4812 0.5479
vt 0.4586 0.5479
vt 0.4586 0.5265
vt 0.5749 0.5530
vt 0.5749 0.3802
vt 0.6646 0.2433
vt 0.6432 0.2433
vt 0.6432 0.0703
vt 0.6646 0.0703
vt 0.6865 0.2403
vt 0.6865 0.0672
vt 0.4435 0.1294
vt 0.4599 0.1450
vt 0.3646 0.3063
vt 0.3511 0.2897
vt 0.4853 0.1809
vt 0.4988 0.1976
vt 0.5973 0.5558
vt 0.5973 0.3831
vt 0.5977 0.5533
vt 0.5977 0.3802
vt 0.5062 0.5558
vt 0.5062 0.3831
vt 0.3392 0.2705
vt 0.4733 0.1617
vn -0.9902 0.1394 -0.0000
vn -0.9869 -0.1615 -0.0000
vn 1.0000 0.0000 0.0000
vn 0.0000 0.0000 1.0000
vn -1.0000 -0.0000 -0.0000
vn 0.0000 0.0000 -1.0000
vn 0.0000 1.0000 0.0000
vn 0.9902 -0.1394 0.0000
vn 0.0000 -1.0000 0.0000
vn 0.0481 0.9988 -0.0000
vn 0.9869 0.1615 0.0000
vn 0.9921 0.1252 0.0000
vn -0.9921 -0.1252 0.0000
usemtl Material
s off
f 3/1/1 11/2/1 62/3/1 58/4/1
f 8/5/2 16/6/2 29/7/2 26/8/2
f 10/9/3 14/10/3 6/11/3 2/12/3
f 18/13/4 20/14/4 7/15/4 3/16/4
f 12/17/5 16/18/5 8/19/5 4/20/5
f 19/21/6 17/22/6 4/23/6 8/24/6
f 3/16/5 7/15/5 15/25/5 11/26/5
f 11/26/5 15/25/5 16/18/5 12/17/5
f 1/27/3 5/28/3 13/29/3 9/30/3
f 9/30/3 13/29/3 14/10/3 10/9/3
f 22/31/6 15/32/6 30/33/6 32/34/6
f 21/35/7 16/36/7 15/37/7 22/38/7
f 24/39/8 18/40/8 57/41/8 64/42/8
f 23/43/9 24/44/9 11/45/9 12/46/9
f 51/47/9 52/48/9 24/44/9 23/43/9
f 47/49/9 51/47/9 23/43/9 17/50/9
f 45/51/10 21/35/10 22/38/10 46/52/10
f 49/53/10 19/54/10 21/35/10 45/51/10
f 49/55/6 47/56/6 17/22/6 19/21/6
f 48/57/4 50/58/4 20/14/4 18/13/4
f 46/52/10 22/38/10 20/59/10 50/60/10
f 52/48/9 48/61/9 18/62/9 24/44/9
f 32/63/9 30/64/9 35/65/9 36/66/9
f 2/67/4 48/68/4 66/69/4 54/70/4
f 20/71/11 22/31/11 32/34/11 27/72/11
f 19/73/6 8/74/6 26/75/6 25/76/6
f 15/32/2 7/77/2 28/78/2 30/33/2
f 16/6/4 21/79/4 31/80/4 29/7/4
f 7/81/4 20/71/4 27/72/4 28/82/4
f 21/79/11 19/73/11 25/76/11 31/80/11
f 34/83/4 33/84/4 37/85/4 38/86/4
f 30/64/9 28/87/9 34/88/9 35/65/9
f 28/87/9 27/89/9 33/90/9 34/88/9
f 27/89/9 32/63/9 36/66/9 33/90/9
f 40/91/7 39/92/7 38/86/7 37/85/7
f 33/93/3 36/94/3 40/95/3 37/96/3
f 35/97/5 34/98/5 38/99/5 39/100/5
f 40/95/3 36/94/3 42/101/3 44/102/3
f 42/103/6 41/104/6 43/105/6 44/106/6
f 39/92/7 40/91/7 44/106/7 43/105/7
f 35/97/5 39/100/5 43/107/5 41/108/5
f 36/66/9 35/65/9 41/109/9 42/110/9
f 14/111/7 46/52/7 50/60/7 6/112/7
f 2/12/4 6/11/4 50/58/4 48/57/4
f 5/28/6 1/27/6 47/56/6 49/55/6
f 5/113/7 49/53/7 45/51/7 13/114/7
f 13/114/7 45/51/7 46/52/7 14/111/7
f 12/115/1 4/116/1 56/117/1 59/118/1
f 9/119/9 10/120/9 52/48/9 51/47/9
f 64/121/9 57/122/9 58/123/9 62/124/9
f 55/125/9 63/126/9 59/127/9 56/128/9
f 53/129/9 54/130/9 66/131/9 68/132/9
f 60/133/9 61/134/9 67/135/9 65/136/9
f 10/137/12 2/67/12 54/70/12 53/138/12
f 17/139/8 23/140/8 63/141/8 55/142/8
f 4/143/6 17/139/6 55/142/6 56/144/6
f 9/119/4 51/47/4 67/145/4 61/146/4
f 51/147/13 47/148/13 65/149/13 67/150/13
f 52/151/6 10/137/6 53/138/6 68/152/6
f 18/40/4 3/153/4 58/154/4 57/41/4
f 48/68/13 52/155/13 68/156/13 66/69/13
f 23/140/4 12/115/4 59/118/4 63/141/4
f 47/148/6 1/157/6 60/158/6 65/149/6
f 1/157/12 9/119/12 61/146/12 60/158/12
f 11/2/6 24/39/6 64/42/6 62/3/6
