# Blender v2.77 (sub 0) OBJ File: 'tv.blend'
# www.blender.org
mtllib tv.mtl
o Cube
v 1.000000 -1.000000 0.694905
v 1.000000 -1.000000 1.000000
v -2.747461 -1.000000 1.000000
v -2.747460 -1.000000 0.694905
v 1.402985 1.745505 0.694905
v 1.402984 1.745505 1.000001
v -3.226480 1.745505 1.000000
v -3.226480 1.745505 0.694905
v 0.771321 -0.825039 0.993785
v -2.518782 -0.825039 0.993785
v 1.174305 1.570545 0.993786
v -2.997802 1.570545 0.993785
v 0.663267 -0.742367 0.847890
v -2.410728 -0.742367 0.847889
v 1.066250 1.487873 0.847890
v -2.889747 1.487873 0.847889
v 0.571555 -0.672200 0.896291
v -2.319016 -0.672200 0.896291
v 0.928918 1.417705 0.896292
v -2.767622 1.417705 0.896291
vt 0.4410 0.8579
vt 0.4410 0.8938
vt 0.0002 0.8938
vt 0.0002 0.8579
vt 0.8725 0.8575
vt 0.3280 0.8575
vt 0.3280 0.8217
vt 0.8725 0.8217
vt 0.7674 0.8579
vt 0.7674 0.8938
vt 0.5666 0.4980
vt 0.0002 0.4861
vt 0.0232 0.4665
vt 0.5431 0.4758
vt 0.0002 0.8217
vt 0.0002 0.8575
vt 0.5447 0.4984
vt 0.4973 0.8213
vt 0.0565 0.8213
vt 0.0002 0.4984
vt 0.0437 0.4466
vt 0.5247 0.4568
vt 0.0002 0.1619
vt 0.0271 0.1758
vt 0.5900 0.1639
vt 0.5608 0.1735
vt 0.1946 0.0002
vt 0.2110 0.0286
vt 0.9597 0.5132
vt 0.9998 0.7732
vt 0.9830 0.7634
vt 0.9475 0.5228
vt 0.5373 0.1848
vt 0.0490 0.1830
vt 0.2148 0.0494
vt 0.5605 0.7630
vt 0.6005 0.5091
vt 0.5451 0.7731
vt 0.5874 0.5009
vt 0.5898 0.4984
vn 0.0000 -1.0000 0.0000
vn 0.0000 1.0000 0.0000
vn 0.9894 -0.1452 0.0000
vn -0.0000 -0.0355 0.9994
vn -0.9851 -0.1719 -0.0000
vn 0.0000 0.0000 -1.0000
vn -0.0000 -0.8700 0.4930
vn 0.0272 0.0051 0.9996
vn -0.0272 0.0043 0.9996
vn -0.0000 0.0355 0.9994
vn 0.3884 -0.0684 0.9190
vn -0.7958 0.1387 0.5894
vn 0.7927 0.1642 0.5871
vn -0.0000 0.8700 0.4930
vn -0.0000 -0.0000 1.0000
vn -0.4108 -0.0882 0.9074
vn -0.0000 -0.5678 0.8232
vn -0.0000 0.5678 0.8232
usemtl Material
s off
f 1/1/1 2/2/1 3/3/1 4/4/1
f 5/5/2 8/6/2 7/7/2 6/8/2
f 1/1/3 5/9/3 6/10/3 2/2/3
f 6/11/4 7/12/4 12/13/4 11/14/4
f 3/15/5 7/7/5 8/6/5 4/16/5
f 5/17/6 1/18/6 4/19/6 8/20/6
f 11/14/7 12/13/7 16/21/7 15/22/7
f 7/12/8 3/23/8 10/24/8 12/13/8
f 2/25/9 6/11/9 11/14/9 9/26/9
f 3/27/10 2/25/10 9/26/10 10/28/10
f 13/29/11 15/30/11 19/31/11 17/32/11
f 9/26/12 11/14/12 15/22/12 13/33/12
f 12/13/13 10/24/13 14/34/13 16/21/13
f 10/28/14 9/26/14 13/33/14 14/35/14
f 17/32/15 19/31/15 20/36/15 18/37/15
f 16/38/16 14/39/16 18/37/16 20/36/16
f 14/40/17 13/29/17 17/32/17 18/37/17
f 15/30/18 16/38/18 20/36/18 19/31/18
