# Blender v2.77 (sub 0) OBJ File: 'zona palankas.blend'
# www.blender.org
mtllib zona palankas.mtl
o Cube
v 2.037113 -0.369337 0.138451
v 2.037113 -0.369337 1.201706
v -3.429827 -0.369337 1.201706
v -3.429826 -0.369337 0.138451
v 1.000000 1.000000 0.340158
v 0.999999 1.000000 1.000001
v -2.392714 1.000000 1.000000
v -2.392714 1.000000 0.340158
v 0.157483 1.223360 0.504018
v 0.157482 1.223360 0.836141
v -1.550196 1.223360 0.836140
v -1.550196 1.223360 0.504017
v 0.923310 1.748912 0.355073
v 0.923309 1.748912 0.985085
v -2.316024 1.748912 0.985084
v -2.316023 1.748912 0.355073
v 0.923310 3.023376 0.355073
v 0.923309 3.023376 0.985085
v -2.316024 3.023376 0.985084
v -2.316023 3.023376 0.355073
v 0.162825 3.627760 0.502978
v 0.162825 3.627760 0.837180
v -1.555539 3.627760 0.837179
v -1.555539 3.627760 0.502978
v 2.373180 -0.432404 0.073090
v 2.373180 -0.432404 1.267067
v -3.765894 -0.432404 1.267067
v -3.765893 -0.432404 0.073090
v 2.373180 -0.795035 0.073090
v 2.373180 -0.795035 1.267067
v -3.765894 -0.795035 1.267067
v -3.765893 -0.795035 0.073090
v -1.250835 3.538722 0.553808
v -1.250835 14.862292 0.553808
v -1.229326 3.538722 0.555926
v -1.229326 14.862292 0.555926
v -1.208645 3.538722 0.562200
v -1.208645 14.862292 0.562200
v -1.189584 3.538722 0.572388
v -1.189584 14.862292 0.572388
v -1.172878 3.538722 0.586099
v -1.172878 14.862292 0.586099
v -1.159167 3.538722 0.602805
v -1.159167 14.862292 0.602805
v -1.148979 3.538722 0.621866
v -1.148979 14.862292 0.621866
v -1.142705 3.538722 0.642548
v -1.142705 14.862292 0.642548
v -1.140586 3.538722 0.664056
v -1.140586 14.862292 0.664056
v -1.142705 3.538722 0.685564
v -1.142705 14.862292 0.685564
v -1.148979 3.538722 0.706246
v -1.148979 14.862292 0.706246
v -1.159167 3.538722 0.725307
v -1.159167 14.862292 0.725307
v -1.172878 3.538722 0.742013
v -1.172878 14.862292 0.742013
v -1.189584 3.538722 0.755724
v -1.189584 14.862292 0.755724
v -1.208645 3.538722 0.765912
v -1.208645 14.862292 0.765912
v -1.229326 3.538722 0.772186
v -1.229326 14.862292 0.772186
v -1.250835 3.538722 0.774304
v -1.250835 14.862292 0.774304
v -1.272343 3.538722 0.772186
v -1.272343 14.862292 0.772186
v -1.293025 3.538722 0.765912
v -1.293025 14.862292 0.765912
v -1.312086 3.538722 0.755724
v -1.312086 14.862292 0.755724
v -1.328793 3.538722 0.742013
v -1.328793 14.862292 0.742013
v -1.342503 3.538722 0.725307
v -1.342503 14.862292 0.725307
v -1.352691 3.538722 0.706246
v -1.352691 14.862292 0.706246
v -1.358965 3.538722 0.685564
v -1.358965 14.862292 0.685564
v -1.361084 3.538722 0.664056
v -1.361084 14.862292 0.664056
v -1.358965 3.538722 0.642547
v -1.358965 14.862292 0.642547
v -1.352691 3.538722 0.621866
v -1.352691 14.862292 0.621866
v -1.342503 3.538722 0.602805
v -1.342503 14.862292 0.602805
v -1.328792 3.538722 0.586098
v -1.328792 14.862292 0.586098
v -1.312086 3.538722 0.572388
v -1.312086 14.862292 0.572388
v -1.293025 3.538722 0.562200
v -1.293025 14.862292 0.562200
v -1.272343 3.538722 0.555926
v -1.272343 14.862292 0.555926
v -0.825818 3.538722 0.553808
v -0.825818 14.862292 0.553808
v -0.804310 3.538722 0.555926
v -0.804310 14.862292 0.555926
v -0.783628 3.538722 0.562200
v -0.783628 14.862292 0.562200
v -0.764568 3.538722 0.572388
v -0.764568 14.862292 0.572388
v -0.747861 3.538722 0.586099
v -0.747861 14.862292 0.586099
v -0.734150 3.538722 0.602805
v -0.734150 14.862292 0.602805
v -0.723962 3.538722 0.621866
v -0.723962 14.862292 0.621866
v -0.717689 3.538722 0.642548
v -0.717689 14.862292 0.642548
v -0.715570 3.538722 0.664056
v -0.715570 14.862292 0.664056
v -0.717689 3.538722 0.685564
v -0.717689 14.862292 0.685564
v -0.723962 3.538722 0.706246
v -0.723962 14.862292 0.706246
v -0.734150 3.538722 0.725307
v -0.734150 14.862292 0.725307
v -0.747861 3.538722 0.742013
v -0.747861 14.862292 0.742013
v -0.764568 3.538722 0.755724
v -0.764568 14.862292 0.755724
v -0.783628 3.538722 0.765912
v -0.783628 14.862292 0.765912
v -0.804310 3.538722 0.772186
v -0.804310 14.862292 0.772186
v -0.825818 3.538722 0.774304
v -0.825818 14.862292 0.774304
v -0.847327 3.538722 0.772186
v -0.847327 14.862292 0.772186
v -0.868009 3.538722 0.765912
v -0.868009 14.862292 0.765912
v -0.887069 3.538722 0.755724
v -0.887069 14.862292 0.755724
v -0.903776 3.538722 0.742013
v -0.903776 14.862292 0.742013
v -0.917487 3.538722 0.725307
v -0.917487 14.862292 0.725307
v -0.927675 3.538722 0.706246
v -0.927675 14.862292 0.706246
v -0.933948 3.538722 0.685564
v -0.933948 14.862292 0.685564
v -0.936067 3.538722 0.664056
v -0.936067 14.862292 0.664056
v -0.933948 3.538722 0.642547
v -0.933948 14.862292 0.642547
v -0.927675 3.538722 0.621866
v -0.927675 14.862292 0.621866
v -0.917487 3.538722 0.602805
v -0.917487 14.862292 0.602805
v -0.903776 3.538722 0.586098
v -0.903776 14.862292 0.586098
v -0.887069 3.538722 0.572388
v -0.887069 14.862292 0.572388
v -0.868009 3.538722 0.562200
v -0.868009 14.862292 0.562200
v -0.847327 3.538722 0.555926
v -0.847327 14.862292 0.555926
v -0.171947 3.538722 0.553808
v -0.171947 14.862292 0.553808
v -0.150439 3.538722 0.555926
v -0.150439 14.862292 0.555926
v -0.129757 3.538722 0.562200
v -0.129757 14.862292 0.562200
v -0.110696 3.538722 0.572388
v -0.110696 14.862292 0.572388
v -0.093990 3.538722 0.586099
v -0.093990 14.862292 0.586099
v -0.080279 3.538722 0.602805
v -0.080279 14.862292 0.602805
v -0.070091 3.538722 0.621866
v -0.070091 14.862292 0.621866
v -0.063817 3.538722 0.642548
v -0.063817 14.862292 0.642548
v -0.061698 3.538722 0.664056
v -0.061698 14.862292 0.664056
v -0.063817 3.538722 0.685564
v -0.063817 14.862292 0.685564
v -0.070091 3.538722 0.706246
v -0.070091 14.862292 0.706246
v -0.080279 3.538722 0.725307
v -0.080279 14.862292 0.725307
v -0.093990 3.538722 0.742013
v -0.093990 14.862292 0.742013
v -0.110696 3.538722 0.755724
v -0.110696 14.862292 0.755724
v -0.129757 3.538722 0.765912
v -0.129757 14.862292 0.765912
v -0.150439 3.538722 0.772186
v -0.150439 14.862292 0.772186
v -0.171947 3.538722 0.774304
v -0.171947 14.862292 0.774304
v -0.193455 3.538722 0.772186
v -0.193455 14.862292 0.772186
v -0.214137 3.538722 0.765912
v -0.214137 14.862292 0.765912
v -0.233198 3.538722 0.755724
v -0.233198 14.862292 0.755724
v -0.249905 3.538722 0.742013
v -0.249905 14.862292 0.742013
v -0.263615 3.538722 0.725307
v -0.263615 14.862292 0.725307
v -0.273803 3.538722 0.706246
v -0.273803 14.862292 0.706246
v -0.280077 3.538722 0.685564
v -0.280077 14.862292 0.685564
v -0.282196 3.538722 0.664056
v -0.282196 14.862292 0.664056
v -0.280077 3.538722 0.642547
v -0.280077 14.862292 0.642547
v -0.273803 3.538722 0.621866
v -0.273803 14.862292 0.621866
v -0.263615 3.538722 0.602805
v -0.263615 14.862292 0.602805
v -0.249904 3.538722 0.586098
v -0.249904 14.862292 0.586098
v -0.233198 3.538722 0.572388
v -0.233198 14.862292 0.572388
v -0.214137 3.538722 0.562200
v -0.214137 14.862292 0.562200
v -0.193455 3.538722 0.555926
v -0.193455 14.862292 0.555926
vt 0.9149 0.0840
vt 0.8254 0.0840
vt 0.8199 0.0552
vt 0.9204 0.0552
vt 0.4232 0.6369
vt 0.1385 0.6369
vt 0.2092 0.6137
vt 0.3525 0.6137
vt 0.6373 0.0840
vt 0.6203 0.2285
vt 0.5648 0.2285
vt 0.5479 0.0840
vt 0.5137 0.0638
vt 0.4267 0.1800
vt 0.1420 0.1800
vt 0.0550 0.0639
vt 0.8979 0.2285
vt 0.8424 0.2285
vt 0.5102 0.7530
vt 0.0515 0.7531
vt 0.2127 0.2032
vt 0.3560 0.2032
vt 0.4202 0.2490
vt 0.1484 0.2491
vt 0.6066 0.3018
vt 0.5786 0.3018
vt 0.8841 0.3018
vt 0.8561 0.3018
vt 0.5661 0.3800
vt 0.6191 0.3800
vt 0.6191 0.4872
vt 0.5661 0.4872
vt 0.8966 0.3800
vt 0.8436 0.3800
vt 0.1449 0.5679
vt 0.4167 0.5678
vt 0.8436 0.4872
vt 0.8966 0.4872
vt 0.8842 0.5690
vt 0.8561 0.5690
vt 0.1449 0.4609
vt 0.4167 0.4609
vt 0.4203 0.3560
vt 0.1484 0.3560
vt 0.6066 0.5690
vt 0.6066 0.7136
vt 0.5785 0.7136
vt 0.5785 0.5690
vt 0.2087 0.4087
vt 0.3529 0.4087
vt 0.3564 0.4082
vt 0.2123 0.4082
vt 0.8199 0.0247
vt 0.9204 0.0247
vt 0.0233 0.0553
vt 0.5419 0.0553
vt 0.5419 0.7616
vt 0.0233 0.7616
vt 0.5424 0.0552
vt 0.6428 0.0552
vt 0.5399 0.7927
vt 0.5399 0.8932
vt 0.0233 0.8932
vt 0.0233 0.7927
vt 0.5419 0.7922
vt 0.0233 0.7922
vt 0.0233 0.0247
vt 0.5419 0.0247
vt 0.5424 0.0247
vt 0.6428 0.0247
vt 0.7589 0.0252
vt 0.7588 0.3403
vt 0.7533 0.3403
vt 0.7534 0.0252
vt 0.7478 0.3404
vt 0.7479 0.0253
vt 0.7423 0.3404
vt 0.7424 0.0253
vt 0.7368 0.3405
vt 0.7369 0.0254
vt 0.7313 0.3405
vt 0.7314 0.0254
vt 0.7258 0.3406
vt 0.7259 0.0254
vt 0.7203 0.3406
vt 0.7204 0.0255
vt 0.7148 0.3406
vt 0.7149 0.0255
vt 0.7093 0.3407
vt 0.7094 0.0256
vt 0.7038 0.3407
vt 0.7039 0.0256
vt 0.6983 0.3408
vt 0.6984 0.0257
vt 0.6928 0.3408
vt 0.6929 0.0257
vt 0.6873 0.3409
vt 0.6874 0.0258
vt 0.6818 0.3409
vt 0.6819 0.0258
vt 0.6763 0.3410
vt 0.6764 0.0259
vt 0.6708 0.3410
vt 0.6709 0.0259
vt 0.6653 0.3411
vt 0.6654 0.0259
vt 0.6598 0.3411
vt 0.6599 0.0260
vt 0.6543 0.3411
vt 0.6544 0.0260
vt 0.6488 0.3412
vt 0.6489 0.0261
vt 0.6433 0.3412
vt 0.6434 0.0261
vt 0.8194 0.0247
vt 0.8193 0.3398
vt 0.8138 0.3398
vt 0.8139 0.0247
vt 0.8083 0.3399
vt 0.8084 0.0248
vt 0.8028 0.3399
vt 0.8029 0.0248
vt 0.7973 0.3400
vt 0.7974 0.0249
vt 0.7918 0.3400
vt 0.7919 0.0249
vt 0.7863 0.3400
vt 0.7864 0.0249
vt 0.7808 0.3401
vt 0.7809 0.0250
vt 0.7753 0.3401
vt 0.7754 0.0250
vt 0.7698 0.3402
vt 0.7699 0.0251
vt 0.6128 0.7315
vt 0.6111 0.7322
vt 0.6094 0.7325
vt 0.6075 0.7325
vt 0.6057 0.7322
vt 0.6041 0.7315
vt 0.6026 0.7305
vt 0.6013 0.7292
vt 0.6003 0.7277
vt 0.5996 0.7260
vt 0.5992 0.7242
vt 0.5992 0.7224
vt 0.5996 0.7206
vt 0.6003 0.7189
vt 0.6013 0.7174
vt 0.6026 0.7161
vt 0.6041 0.7151
vt 0.6057 0.7144
vt 0.6075 0.7141
vt 0.6094 0.7141
vt 0.6111 0.7144
vt 0.6128 0.7151
vt 0.6143 0.7161
vt 0.6156 0.7174
vt 0.6166 0.7189
vt 0.6173 0.7206
vt 0.6177 0.7224
vt 0.6177 0.7242
vt 0.6173 0.7260
vt 0.6166 0.7277
vt 0.6156 0.7292
vt 0.6143 0.7305
vt 0.7643 0.3402
vt 0.7644 0.0251
vt 0.5732 0.7144
vt 0.5749 0.7151
vt 0.5764 0.7161
vt 0.5777 0.7174
vt 0.5787 0.7189
vt 0.5794 0.7206
vt 0.5798 0.7224
vt 0.5798 0.7242
vt 0.5794 0.7260
vt 0.5787 0.7277
vt 0.5777 0.7292
vt 0.5764 0.7305
vt 0.5749 0.7315
vt 0.5732 0.7322
vt 0.5714 0.7325
vt 0.5696 0.7325
vt 0.5678 0.7322
vt 0.5662 0.7315
vt 0.5647 0.7305
vt 0.5634 0.7292
vt 0.5624 0.7277
vt 0.5617 0.7260
vt 0.5613 0.7242
vt 0.5613 0.7224
vt 0.5617 0.7206
vt 0.5624 0.7189
vt 0.5634 0.7174
vt 0.5647 0.7161
vt 0.5662 0.7151
vt 0.5678 0.7144
vt 0.5696 0.7141
vt 0.5714 0.7141
vt 0.7589 0.3422
vt 0.7588 0.6573
vt 0.7533 0.6574
vt 0.7534 0.3423
vt 0.7478 0.6574
vt 0.7479 0.3423
vt 0.7423 0.6575
vt 0.7424 0.3424
vt 0.7368 0.6575
vt 0.7369 0.3424
vt 0.7313 0.6576
vt 0.7314 0.3424
vt 0.7258 0.6576
vt 0.7259 0.3425
vt 0.7203 0.6576
vt 0.7204 0.3425
vt 0.7148 0.6577
vt 0.7149 0.3426
vt 0.7093 0.6577
vt 0.7094 0.3426
vt 0.7038 0.6578
vt 0.7039 0.3427
vt 0.6983 0.6578
vt 0.6984 0.3427
vt 0.6928 0.6579
vt 0.6929 0.3428
vt 0.6873 0.6579
vt 0.6874 0.3428
vt 0.6818 0.6580
vt 0.6819 0.3429
vt 0.6763 0.6580
vt 0.6764 0.3429
vt 0.6708 0.6581
vt 0.6709 0.3429
vt 0.6653 0.6581
vt 0.6654 0.3430
vt 0.6598 0.6581
vt 0.6599 0.3430
vt 0.6543 0.6582
vt 0.6544 0.3431
vt 0.6488 0.6582
vt 0.6489 0.3431
vt 0.6433 0.6583
vt 0.6434 0.3432
vt 0.8194 0.3417
vt 0.8193 0.6568
vt 0.8138 0.6569
vt 0.8139 0.3418
vt 0.8083 0.6569
vt 0.8084 0.3418
vt 0.8028 0.6570
vt 0.8029 0.3419
vt 0.7973 0.6570
vt 0.7974 0.3419
vt 0.7918 0.6571
vt 0.7919 0.3419
vt 0.7863 0.6571
vt 0.7864 0.3420
vt 0.7808 0.6571
vt 0.7809 0.3420
vt 0.7753 0.6572
vt 0.7754 0.3421
vt 0.7698 0.6572
vt 0.7699 0.3421
vt 0.5939 0.7315
vt 0.5922 0.7322
vt 0.5904 0.7325
vt 0.5886 0.7325
vt 0.5868 0.7322
vt 0.5851 0.7315
vt 0.5836 0.7305
vt 0.5823 0.7292
vt 0.5813 0.7277
vt 0.5806 0.7260
vt 0.5803 0.7242
vt 0.5803 0.7224
vt 0.5806 0.7206
vt 0.5813 0.7189
vt 0.5823 0.7174
vt 0.5836 0.7161
vt 0.5851 0.7151
vt 0.5868 0.7144
vt 0.5886 0.7141
vt 0.5904 0.7141
vt 0.5922 0.7144
vt 0.5939 0.7151
vt 0.5954 0.7161
vt 0.5967 0.7174
vt 0.5977 0.7189
vt 0.5984 0.7206
vt 0.5987 0.7224
vt 0.5987 0.7242
vt 0.5984 0.7260
vt 0.5977 0.7277
vt 0.5967 0.7292
vt 0.5954 0.7305
vt 0.7643 0.6573
vt 0.7644 0.3422
vt 0.5525 0.7141
vt 0.5543 0.7144
vt 0.5560 0.7151
vt 0.5575 0.7161
vt 0.5588 0.7174
vt 0.5598 0.7189
vt 0.5605 0.7206
vt 0.5608 0.7224
vt 0.5608 0.7242
vt 0.5605 0.7260
vt 0.5598 0.7277
vt 0.5588 0.7292
vt 0.5575 0.7305
vt 0.5560 0.7315
vt 0.5543 0.7322
vt 0.5525 0.7325
vt 0.5507 0.7325
vt 0.5489 0.7322
vt 0.5472 0.7315
vt 0.5457 0.7305
vt 0.5444 0.7292
vt 0.5434 0.7277
vt 0.5427 0.7260
vt 0.5424 0.7242
vt 0.5424 0.7224
vt 0.5427 0.7206
vt 0.5434 0.7189
vt 0.5444 0.7174
vt 0.5457 0.7161
vt 0.5472 0.7151
vt 0.5489 0.7144
vt 0.5507 0.7141
vt 0.7589 0.6593
vt 0.7588 0.9744
vt 0.7533 0.9744
vt 0.7534 0.6593
vt 0.7478 0.9745
vt 0.7479 0.6594
vt 0.7423 0.9745
vt 0.7424 0.6594
vt 0.7368 0.9746
vt 0.7369 0.6594
vt 0.7313 0.9746
vt 0.7314 0.6595
vt 0.7258 0.9746
vt 0.7259 0.6595
vt 0.7203 0.9747
vt 0.7204 0.6596
vt 0.7148 0.9747
vt 0.7149 0.6596
vt 0.7093 0.9748
vt 0.7094 0.6597
vt 0.7038 0.9748
vt 0.7039 0.6597
vt 0.6983 0.9749
vt 0.6984 0.6598
vt 0.6928 0.9749
vt 0.6929 0.6598
vt 0.6873 0.9750
vt 0.6874 0.6599
vt 0.6818 0.9750
vt 0.6819 0.6599
vt 0.6763 0.9751
vt 0.6764 0.6599
vt 0.6708 0.9751
vt 0.6709 0.6600
vt 0.6653 0.9751
vt 0.6654 0.6600
vt 0.6598 0.9752
vt 0.6599 0.6601
vt 0.6543 0.9752
vt 0.6544 0.6601
vt 0.6488 0.9753
vt 0.6489 0.6602
vt 0.6433 0.9753
vt 0.6434 0.6602
vt 0.8194 0.6588
vt 0.8193 0.9739
vt 0.8138 0.9739
vt 0.8139 0.6588
vt 0.8083 0.9740
vt 0.8084 0.6589
vt 0.8028 0.9740
vt 0.8029 0.6589
vt 0.7973 0.9741
vt 0.7974 0.6589
vt 0.7918 0.9741
vt 0.7919 0.6590
vt 0.7863 0.9741
vt 0.7864 0.6590
vt 0.7808 0.9742
vt 0.7809 0.6591
vt 0.7753 0.9742
vt 0.7754 0.6591
vt 0.7698 0.9743
vt 0.7699 0.6592
vt 0.6265 0.7325
vt 0.6247 0.7322
vt 0.6230 0.7315
vt 0.6215 0.7305
vt 0.6202 0.7292
vt 0.6192 0.7277
vt 0.6185 0.7260
vt 0.6182 0.7242
vt 0.6182 0.7224
vt 0.6185 0.7206
vt 0.6192 0.7189
vt 0.6202 0.7174
vt 0.6215 0.7161
vt 0.6230 0.7151
vt 0.6247 0.7144
vt 0.6265 0.7141
vt 0.6283 0.7141
vt 0.6301 0.7144
vt 0.6318 0.7151
vt 0.6333 0.7161
vt 0.6346 0.7174
vt 0.6356 0.7189
vt 0.6363 0.7206
vt 0.6366 0.7224
vt 0.6366 0.7242
vt 0.6363 0.7260
vt 0.6356 0.7277
vt 0.6346 0.7292
vt 0.6333 0.7305
vt 0.6318 0.7315
vt 0.6301 0.7322
vt 0.6283 0.7325
vt 0.7643 0.9743
vt 0.7644 0.6592
vt 0.5543 0.7334
vt 0.5560 0.7341
vt 0.5575 0.7351
vt 0.5588 0.7364
vt 0.5598 0.7379
vt 0.5605 0.7396
vt 0.5608 0.7413
vt 0.5608 0.7432
vt 0.5605 0.7449
vt 0.5598 0.7466
vt 0.5588 0.7481
vt 0.5575 0.7494
vt 0.5560 0.7504
vt 0.5543 0.7511
vt 0.5525 0.7515
vt 0.5507 0.7515
vt 0.5489 0.7511
vt 0.5472 0.7504
vt 0.5457 0.7494
vt 0.5444 0.7481
vt 0.5434 0.7466
vt 0.5427 0.7449
vt 0.5424 0.7432
vt 0.5424 0.7413
vt 0.5427 0.7396
vt 0.5434 0.7379
vt 0.5444 0.7364
vt 0.5457 0.7351
vt 0.5472 0.7341
vt 0.5489 0.7334
vt 0.5507 0.7330
vt 0.5525 0.7330
vn -0.1844 0.9828 -0.0000
vn 0.0000 0.5915 -0.8063
vn 0.7972 0.6038 0.0000
vn -0.0000 0.1457 0.9893
vn -0.7972 0.6038 -0.0000
vn 0.0000 0.1457 -0.9893
vn -0.0000 -0.2727 0.9621
vn -0.0000 0.5915 0.8063
vn 0.2563 0.9666 0.0000
vn -0.2563 0.9666 -0.0000
vn 1.0000 0.0000 0.0000
vn 0.5658 -0.8245 0.0000
vn -0.5658 -0.8245 -0.0000
vn 0.0000 -0.2727 -0.9621
vn -0.6222 0.7829 -0.0000
vn -1.0000 0.0000 -0.0000
vn 0.0000 0.0000 -1.0000
vn -0.0000 0.0000 1.0000
vn 0.0000 1.0000 0.0000
vn 0.0000 0.2377 -0.9713
vn -0.0000 0.2377 0.9713
vn 0.6222 0.7829 0.0000
vn -0.0000 0.7196 0.6944
vn 0.0000 0.7196 -0.6944
vn 0.1844 0.9828 0.0000
vn 0.0000 -1.0000 -0.0000
vn 0.0980 0.0000 -0.9952
vn 0.2903 0.0000 -0.9569
vn 0.4714 0.0000 -0.8819
vn 0.6344 0.0000 -0.7730
vn 0.7730 0.0000 -0.6344
vn 0.8819 0.0000 -0.4714
vn 0.9569 0.0000 -0.2903
vn 0.9952 0.0000 -0.0980
vn 0.9952 0.0000 0.0980
vn 0.9569 0.0000 0.2903
vn 0.8819 0.0000 0.4714
vn 0.7730 0.0000 0.6344
vn 0.6344 0.0000 0.7730
vn 0.4714 0.0000 0.8819
vn 0.2903 0.0000 0.9569
vn 0.0980 0.0000 0.9952
vn -0.0980 0.0000 0.9952
vn -0.2903 0.0000 0.9569
vn -0.4714 0.0000 0.8819
vn -0.6344 0.0000 0.7730
vn -0.7730 0.0000 0.6344
vn -0.8819 0.0000 0.4714
vn -0.9569 0.0000 0.2903
vn -0.9952 0.0000 0.0980
vn -0.9952 0.0000 -0.0980
vn -0.9569 0.0000 -0.2903
vn -0.8819 0.0000 -0.4714
vn -0.7730 0.0000 -0.6344
vn -0.6344 0.0000 -0.7730
vn -0.4714 0.0000 -0.8819
vn -0.2903 0.0000 -0.9569
vn -0.0980 0.0000 -0.9952
usemtl Material
s off
f 3/1/1 4/2/1 28/3/1 27/4/1
f 5/5/2 8/6/2 12/7/2 9/8/2
f 1/9/3 5/10/3 6/11/3 2/12/3
f 2/13/4 6/14/4 7/15/4 3/16/4
f 3/1/5 7/17/5 8/18/5 4/2/5
f 5/5/6 1/19/6 4/20/6 8/6/6
f 11/21/7 10/22/7 14/23/7 15/24/7
f 7/15/8 6/14/8 10/22/8 11/21/8
f 6/11/9 5/10/9 9/25/9 10/26/9
f 8/18/10 7/17/10 11/27/10 12/28/10
f 14/29/11 13/30/11 17/31/11 18/32/11
f 10/26/12 9/25/12 13/30/12 14/29/12
f 12/28/13 11/27/13 15/33/13 16/34/13
f 9/8/14 12/7/14 16/35/14 13/36/14
f 20/37/15 19/38/15 23/39/15 24/40/15
f 16/34/16 15/33/16 19/38/16 20/37/16
f 13/36/17 16/35/17 20/41/17 17/42/17
f 15/24/18 14/23/18 18/43/18 19/44/18
f 21/45/19 24/46/19 23/47/19 22/48/19
f 17/42/20 20/41/20 24/49/20 21/50/20
f 19/44/21 18/43/21 22/51/21 23/52/21
f 18/32/22 17/31/22 21/45/22 22/48/22
f 27/4/16 28/3/16 32/53/16 31/54/16
f 2/13/23 3/16/23 27/55/23 26/56/23
f 4/20/24 1/19/24 25/57/24 28/58/24
f 1/9/25 2/12/25 26/59/25 25/60/25
f 29/61/26 30/62/26 31/63/26 32/64/26
f 28/58/17 25/57/17 29/65/17 32/66/17
f 26/56/18 27/55/18 31/67/18 30/68/18
f 25/60/11 26/59/11 30/69/11 29/70/11
f 33/71/27 34/72/27 36/73/27 35/74/27
f 35/74/28 36/73/28 38/75/28 37/76/28
f 37/76/29 38/75/29 40/77/29 39/78/29
f 39/78/30 40/77/30 42/79/30 41/80/30
f 41/80/31 42/79/31 44/81/31 43/82/31
f 43/82/32 44/81/32 46/83/32 45/84/32
f 45/84/33 46/83/33 48/85/33 47/86/33
f 47/86/34 48/85/34 50/87/34 49/88/34
f 49/88/35 50/87/35 52/89/35 51/90/35
f 51/90/36 52/89/36 54/91/36 53/92/36
f 53/92/37 54/91/37 56/93/37 55/94/37
f 55/94/38 56/93/38 58/95/38 57/96/38
f 57/96/39 58/95/39 60/97/39 59/98/39
f 59/98/40 60/97/40 62/99/40 61/100/40
f 61/100/41 62/99/41 64/101/41 63/102/41
f 63/102/42 64/101/42 66/103/42 65/104/42
f 65/104/43 66/103/43 68/105/43 67/106/43
f 67/106/44 68/105/44 70/107/44 69/108/44
f 69/108/45 70/107/45 72/109/45 71/110/45
f 71/110/46 72/109/46 74/111/46 73/112/46
f 73/112/47 74/111/47 76/113/47 75/114/47
f 75/115/48 76/116/48 78/117/48 77/118/48
f 77/118/49 78/117/49 80/119/49 79/120/49
f 79/120/50 80/119/50 82/121/50 81/122/50
f 81/122/51 82/121/51 84/123/51 83/124/51
f 83/124/52 84/123/52 86/125/52 85/126/52
f 85/126/53 86/125/53 88/127/53 87/128/53
f 87/128/54 88/127/54 90/129/54 89/130/54
f 89/130/55 90/129/55 92/131/55 91/132/55
f 91/132/56 92/131/56 94/133/56 93/134/56
f 36/135/19 34/136/19 96/137/19 94/138/19 92/139/19 90/140/19 88/141/19 86/142/19 84/143/19 82/144/19 80/145/19 78/146/19 76/147/19 74/148/19 72/149/19 70/150/19 68/151/19 66/152/19 64/153/19 62/154/19 60/155/19 58/156/19 56/157/19 54/158/19 52/159/19 50/160/19 48/161/19 46/162/19 44/163/19 42/164/19 40/165/19 38/166/19
f 93/134/57 94/133/57 96/167/57 95/168/57
f 95/168/58 96/167/58 34/72/58 33/71/58
f 33/169/26 35/170/26 37/171/26 39/172/26 41/173/26 43/174/26 45/175/26 47/176/26 49/177/26 51/178/26 53/179/26 55/180/26 57/181/26 59/182/26 61/183/26 63/184/26 65/185/26 67/186/26 69/187/26 71/188/26 73/189/26 75/190/26 77/191/26 79/192/26 81/193/26 83/194/26 85/195/26 87/196/26 89/197/26 91/198/26 93/199/26 95/200/26
f 97/201/27 98/202/27 100/203/27 99/204/27
f 99/204/28 100/203/28 102/205/28 101/206/28
f 101/206/29 102/205/29 104/207/29 103/208/29
f 103/208/30 104/207/30 106/209/30 105/210/30
f 105/210/31 106/209/31 108/211/31 107/212/31
f 107/212/32 108/211/32 110/213/32 109/214/32
f 109/214/33 110/213/33 112/215/33 111/216/33
f 111/216/34 112/215/34 114/217/34 113/218/34
f 113/218/35 114/217/35 116/219/35 115/220/35
f 115/220/36 116/219/36 118/221/36 117/222/36
f 117/222/37 118/221/37 120/223/37 119/224/37
f 119/224/38 120/223/38 122/225/38 121/226/38
f 121/226/39 122/225/39 124/227/39 123/228/39
f 123/228/40 124/227/40 126/229/40 125/230/40
f 125/230/41 126/229/41 128/231/41 127/232/41
f 127/232/42 128/231/42 130/233/42 129/234/42
f 129/234/43 130/233/43 132/235/43 131/236/43
f 131/236/44 132/235/44 134/237/44 133/238/44
f 133/238/45 134/237/45 136/239/45 135/240/45
f 135/240/46 136/239/46 138/241/46 137/242/46
f 137/242/47 138/241/47 140/243/47 139/244/47
f 139/245/48 140/246/48 142/247/48 141/248/48
f 141/248/49 142/247/49 144/249/49 143/250/49
f 143/250/50 144/249/50 146/251/50 145/252/50
f 145/252/51 146/251/51 148/253/51 147/254/51
f 147/254/52 148/253/52 150/255/52 149/256/52
f 149/256/53 150/255/53 152/257/53 151/258/53
f 151/258/54 152/257/54 154/259/54 153/260/54
f 153/260/55 154/259/55 156/261/55 155/262/55
f 155/262/56 156/261/56 158/263/56 157/264/56
f 100/265/19 98/266/19 160/267/19 158/268/19 156/269/19 154/270/19 152/271/19 150/272/19 148/273/19 146/274/19 144/275/19 142/276/19 140/277/19 138/278/19 136/279/19 134/280/19 132/281/19 130/282/19 128/283/19 126/284/19 124/285/19 122/286/19 120/287/19 118/288/19 116/289/19 114/290/19 112/291/19 110/292/19 108/293/19 106/294/19 104/295/19 102/296/19
f 157/264/57 158/263/57 160/297/57 159/298/57
f 159/298/58 160/297/58 98/202/58 97/201/58
f 97/299/26 99/300/26 101/301/26 103/302/26 105/303/26 107/304/26 109/305/26 111/306/26 113/307/26 115/308/26 117/309/26 119/310/26 121/311/26 123/312/26 125/313/26 127/314/26 129/315/26 131/316/26 133/317/26 135/318/26 137/319/26 139/320/26 141/321/26 143/322/26 145/323/26 147/324/26 149/325/26 151/326/26 153/327/26 155/328/26 157/329/26 159/330/26
f 161/331/27 162/332/27 164/333/27 163/334/27
f 163/334/28 164/333/28 166/335/28 165/336/28
f 165/336/29 166/335/29 168/337/29 167/338/29
f 167/338/30 168/337/30 170/339/30 169/340/30
f 169/340/31 170/339/31 172/341/31 171/342/31
f 171/342/32 172/341/32 174/343/32 173/344/32
f 173/344/33 174/343/33 176/345/33 175/346/33
f 175/346/34 176/345/34 178/347/34 177/348/34
f 177/348/35 178/347/35 180/349/35 179/350/35
f 179/350/36 180/349/36 182/351/36 181/352/36
f 181/352/37 182/351/37 184/353/37 183/354/37
f 183/354/38 184/353/38 186/355/38 185/356/38
f 185/356/39 186/355/39 188/357/39 187/358/39
f 187/358/40 188/357/40 190/359/40 189/360/40
f 189/360/41 190/359/41 192/361/41 191/362/41
f 191/362/42 192/361/42 194/363/42 193/364/42
f 193/364/43 194/363/43 196/365/43 195/366/43
f 195/366/44 196/365/44 198/367/44 197/368/44
f 197/368/45 198/367/45 200/369/45 199/370/45
f 199/370/46 200/369/46 202/371/46 201/372/46
f 201/372/47 202/371/47 204/373/47 203/374/47
f 203/375/48 204/376/48 206/377/48 205/378/48
f 205/378/49 206/377/49 208/379/49 207/380/49
f 207/380/50 208/379/50 210/381/50 209/382/50
f 209/382/51 210/381/51 212/383/51 211/384/51
f 211/384/52 212/383/52 214/385/52 213/386/52
f 213/386/53 214/385/53 216/387/53 215/388/53
f 215/388/54 216/387/54 218/389/54 217/390/54
f 217/390/55 218/389/55 220/391/55 219/392/55
f 219/392/56 220/391/56 222/393/56 221/394/56
f 164/395/19 162/396/19 224/397/19 222/398/19 220/399/19 218/400/19 216/401/19 214/402/19 212/403/19 210/404/19 208/405/19 206/406/19 204/407/19 202/408/19 200/409/19 198/410/19 196/411/19 194/412/19 192/413/19 190/414/19 188/415/19 186/416/19 184/417/19 182/418/19 180/419/19 178/420/19 176/421/19 174/422/19 172/423/19 170/424/19 168/425/19 166/426/19
f 221/394/57 222/393/57 224/427/57 223/428/57
f 223/428/58 224/427/58 162/332/58 161/331/58
f 161/429/26 163/430/26 165/431/26 167/432/26 169/433/26 171/434/26 173/435/26 175/436/26 177/437/26 179/438/26 181/439/26 183/440/26 185/441/26 187/442/26 189/443/26 191/444/26 193/445/26 195/446/26 197/447/26 199/448/26 201/449/26 203/450/26 205/451/26 207/452/26 209/453/26 211/454/26 213/455/26 215/456/26 217/457/26 219/458/26 221/459/26 223/460/26
