# Blender v2.79 (sub 0) OBJ File: 'suelos 101 buenos.blend'
# www.blender.org
mtllib A04.mtl
o Cube.004_Cube.005
v 1.155156 -0.968867 -1.000000
v 1.155156 -0.968867 0.999999
v -1.168871 1.181446 0.999999
v -1.168872 1.181446 -1.000001
v 1.155156 1.031133 -1.000000
v 1.155155 0.727973 1.000000
v 0.527969 1.180508 0.999999
v 0.831128 1.180340 -1.000001
v 1.155156 -0.968867 0.885317
v 1.155156 -0.968867 0.951837
v -1.168871 1.181446 0.951837
v -1.168871 1.181446 0.885317
v 1.155155 0.959053 0.885318
v 1.155155 0.878493 0.951838
v 0.678488 1.180424 0.951837
v 0.759048 1.180380 0.885317
v -1.168871 1.181446 0.821783
v -1.168871 1.181446 0.729619
v 0.805688 1.180354 0.821782
v 0.831128 1.180340 0.729619
v 1.155156 -0.968867 0.729619
v 1.155156 -0.968867 0.821783
v 1.155156 1.031133 0.729620
v 1.155155 1.005693 0.821783
v 0.876675 -0.968867 -1.000001
v 0.876675 -0.968867 0.999999
v 0.876675 1.031133 -1.000000
v 0.876674 0.727973 1.000000
v 0.876674 0.959053 0.885318
v 0.876674 0.878493 0.951838
v 0.876675 -0.968867 0.885317
v 0.876675 -0.968867 0.951837
v 0.876675 -0.968867 0.729619
v 0.876675 -0.968867 0.821783
v 0.876675 1.031133 0.729619
v 0.876674 1.005693 0.821783
v -1.167974 -0.968442 -1.000001
v -1.167974 -0.968442 0.999999
v 0.853902 1.105736 -1.000000
v 0.702321 0.954240 0.999999
v -1.167974 -0.968442 0.885317
v -1.167974 -0.968442 0.951837
v -1.167974 -0.968442 0.729619
v -1.167974 -0.968442 0.821783
v 0.817861 1.069716 0.885317
v 0.777581 1.029459 0.951837
v 0.853902 1.105736 0.729619
v 0.841181 1.093023 0.821783
vt 0.008190 0.358111
vt 0.000172 0.358111
vt 0.000173 0.000173
vt 0.008192 0.000173
vt 0.658931 0.344386
vt 0.639859 0.367409
vt 0.614436 0.364808
vt 0.645960 0.329622
vt 0.341525 0.385474
vt 0.341527 0.693048
vt 0.333508 0.667986
vt 0.333506 0.385474
vt 0.339231 0.000170
vt 0.333506 0.350507
vt 0.711857 0.718461
vt 0.711857 0.385472
vt 0.999830 0.385471
vt 0.999830 0.718461
vt 0.666840 0.718461
vt 0.666840 0.435947
vt 0.674859 0.410885
vt 0.674859 0.718461
vt 0.685934 0.397472
vt 0.685933 0.718461
vt 0.363180 0.385474
vt 0.363182 0.714227
vt 0.352603 0.706461
vt 0.352601 0.385474
vt 0.676662 0.364705
vt 0.667078 0.376591
vt 0.655817 0.371649
vt 0.668760 0.355613
vt 0.029843 0.358111
vt 0.019266 0.358111
vt 0.019266 0.000173
vt 0.029843 0.000173
vt 0.333161 0.358111
vt 0.045188 0.358111
vt 0.045188 0.000173
vt 0.333158 0.000170
vt 0.621478 0.778156
vt 0.621478 0.791143
vt 0.333506 0.791143
vt 0.333506 0.778156
vt 0.687213 0.375832
vt 0.679299 0.385131
vt 0.666497 0.385471
vt 0.666499 0.718460
vt 0.378527 0.718462
vt 0.378525 0.385474
vt 0.696512 0.389707
vt 0.696512 0.718461
vt 0.740332 0.351881
vt 0.695557 0.366822
vt 0.687843 0.351991
vt 0.735202 0.336508
vt 0.621478 0.718803
vt 0.621478 0.765169
vt 0.333506 0.765169
vt 0.333506 0.718803
vt 0.045188 0.744907
vt 0.029843 0.744907
vt 0.029843 0.698541
vt 0.045188 0.698541
vt 0.333165 0.744905
vt 0.333165 0.698539
vt 0.019265 0.744907
vt 0.008189 0.744908
vt 0.008189 0.698541
vt 0.019265 0.698541
vt 0.731418 0.324173
vt 0.683274 0.337762
vt 0.679096 0.318287
vt 0.727136 0.307673
vt 0.718411 0.000170
vt 0.722663 0.283177
vt 0.676284 0.289512
vt 0.671965 0.000868
vt 0.000170 0.744908
vt 0.000170 0.698541
vn -1.0000 -0.0004 0.0000
vn 0.3164 0.2293 0.9205
vn 1.0000 0.0000 0.0000
vn 0.0000 0.0000 1.0000
vn 0.0006 1.0000 0.0000
vn 0.7824 0.3727 0.4990
vn 0.6257 0.3777 0.6825
vn 0.9564 0.2920 -0.0000
vn 0.9193 0.3308 0.2131
vn -0.0000 0.9640 0.2661
vn 0.0000 1.0000 0.0000
vn 0.0000 -1.0000 -0.0000
vn -0.0000 0.6367 0.7711
vn -0.0000 0.8061 0.5918
vn -0.0000 0.3048 0.9524
vn 0.9325 0.3355 0.1338
vn -0.0002 -1.0000 0.0000
vn 0.6920 0.4177 0.5888
vn 0.8376 0.3989 0.3733
vn 0.3609 0.2616 0.8951
usemtl Material.005
s off
f 42/1/1 38/2/1 3/3/1 11/4/1
f 46/5/2 15/6/2 7/7/2 40/8/2
f 10/9/3 14/10/3 6/11/3 2/12/3
f 38/13/4 40/8/4 7/7/4 3/14/4
f 18/15/5 20/16/5 8/17/5 4/18/5
f 3/19/5 7/20/5 15/21/5 11/22/5
f 11/22/5 15/21/5 16/23/5 12/24/5
f 22/25/3 24/26/3 13/27/3 9/28/3
f 9/28/3 13/27/3 14/10/3 10/9/3
f 48/29/6 19/30/6 16/31/6 45/32/6
f 45/32/7 16/31/7 15/6/7 46/5/7
f 44/33/1 41/34/1 12/35/1 17/36/1
f 41/34/1 42/1/1 11/4/1 12/35/1
f 37/37/1 43/38/1 18/39/1 4/40/1
f 43/38/1 44/33/1 17/36/1 18/39/1
f 39/41/8 8/42/8 20/43/8 47/44/8
f 47/45/9 20/46/9 19/30/9 48/29/9
f 1/47/3 5/48/3 23/49/3 21/50/3
f 21/50/3 23/49/3 24/26/3 22/25/3
f 12/24/5 16/23/5 19/51/5 17/52/5
f 17/52/5 19/51/5 20/16/5 18/15/5
f 23/53/10 35/54/10 36/55/10 24/56/10
f 5/57/11 27/58/11 35/59/11 23/60/11
f 21/61/12 22/62/12 34/63/12 33/64/12
f 1/65/12 21/61/12 33/64/12 25/66/12
f 9/67/12 10/68/12 32/69/12 31/70/12
f 22/62/12 9/67/12 31/70/12 34/63/12
f 13/71/13 29/72/13 30/73/13 14/74/13
f 24/56/14 36/55/14 29/72/14 13/71/14
f 2/75/4 6/76/4 28/77/4 26/78/4
f 14/74/15 30/73/15 28/77/15 6/76/15
f 10/68/12 2/79/12 26/80/12 32/69/12
f 35/54/16 47/45/16 48/29/16 36/55/16
f 27/58/8 39/41/8 47/44/8 35/59/8
f 33/64/17 34/63/17 44/33/17 43/38/17
f 25/66/17 33/64/17 43/38/17 37/37/17
f 31/70/17 32/69/17 42/1/17 41/34/17
f 34/63/17 31/70/17 41/34/17 44/33/17
f 29/72/18 45/32/18 46/5/18 30/73/18
f 36/55/19 48/29/19 45/32/19 29/72/19
f 26/78/4 28/77/4 40/8/4 38/13/4
f 30/73/20 46/5/20 40/8/20 28/77/20
f 32/69/17 26/80/17 38/2/17 42/1/17
