# Blender v2.79 (sub 0) OBJ File: 'suelos 101 buenos.blend'
# www.blender.org
mtllib A05.mtl
o Cube.007_Cube.003
v 1.023111 -0.836054 -1.000000
v 1.023111 -0.836054 0.999999
v -0.976889 -0.836054 0.999999
v -0.976889 -0.836054 -1.000001
v 1.023112 1.163946 -1.000000
v 1.023110 0.860786 1.000000
v -0.976889 0.775321 0.999999
v -0.976889 1.078481 -1.000000
v 1.023111 -0.836054 0.885317
v 1.023111 -0.836054 0.951837
v -0.976889 -0.836054 0.951837
v -0.976889 -0.836054 0.885317
v 1.023111 1.091866 0.885318
v 1.023111 1.011306 0.951838
v -0.976889 0.925841 0.951837
v -0.976889 1.006401 0.885317
v -0.976889 -0.836054 0.821783
v -0.976889 -0.836054 0.729619
v -0.976889 1.053041 0.821783
v -0.976889 1.078481 0.729619
v 1.023111 -0.836054 0.729619
v 1.023111 -0.836054 0.821783
v 1.023111 1.163946 0.729620
v 1.023111 1.138506 0.821784
v 0.023111 -0.836054 -1.000001
v 0.023111 -0.836054 0.999999
v 0.023111 1.163946 -1.000000
v 0.023111 0.860786 1.000000
v 0.023111 1.091866 0.885317
v 0.023111 1.011306 0.951837
v 0.023111 -0.836054 0.885317
v 0.023111 -0.836054 0.951837
v 0.023111 -0.836054 0.729619
v 0.023111 -0.836054 0.821783
v 0.023111 1.163946 0.729619
v 0.023111 1.138506 0.821783
v -0.131130 -0.836054 -1.000001
v -0.131130 -0.836054 0.999999
v -0.131130 1.078481 -1.000000
v -0.131130 0.775321 1.000000
v -0.131130 -0.836054 0.885317
v -0.131130 -0.836054 0.951837
v -0.131130 -0.836054 0.729619
v -0.131130 -0.836054 0.821783
v -0.131130 1.006401 0.885317
v -0.131130 0.925841 0.951837
v -0.131130 1.078481 0.729619
v -0.131130 1.053041 0.821783
vt 0.505239 0.750492
vt 0.505239 0.758997
vt 0.355896 0.758997
vt 0.355896 0.750493
vt 0.155797 0.315892
vt 0.001381 0.313206
vt 0.001933 0.284704
vt 0.155522 0.286973
vt 0.670230 0.306035
vt 0.670230 0.632235
vt 0.661725 0.605655
vt 0.661725 0.306035
vt 0.151833 0.000549
vt 0.002585 0.000713
vt 0.661725 0.000206
vt 0.999794 0.000206
vt 0.999794 0.305623
vt 0.661725 0.305623
vt 0.353779 0.375516
vt 0.353779 0.660052
vt 0.345275 0.686631
vt 0.345274 0.375516
vt 0.333528 0.700856
vt 0.333527 0.375516
vt 0.693196 0.306035
vt 0.693196 0.654697
vt 0.681976 0.646461
vt 0.681976 0.306035
vt 0.155249 0.349877
vt 0.000653 0.346067
vt 0.000984 0.331921
vt 0.155648 0.335279
vt 0.505239 0.727527
vt 0.505239 0.738746
vt 0.355896 0.738747
vt 0.355896 0.727527
vt 0.305623 0.524861
vt 0.000206 0.524861
vt 0.000206 0.375516
vt 0.305623 0.375517
vt 0.505239 0.711253
vt 0.355896 0.711253
vt 0.661313 0.207924
vt 0.661313 0.357268
vt 0.355896 0.357268
vt 0.355896 0.207924
vt 0.153707 0.367357
vt 0.000206 0.363036
vt 0.661313 0.357680
vt 0.661313 0.710841
vt 0.355896 0.710841
vt 0.355896 0.357680
vt 0.709470 0.306035
vt 0.709470 0.659189
vt 0.322310 0.709092
vt 0.322309 0.375516
vt 0.306035 0.713584
vt 0.306035 0.375517
vt 0.355460 0.375104
vt 0.184066 0.374853
vt 0.185151 0.358485
vt 0.355484 0.358717
vt 0.661313 0.000206
vt 0.661313 0.176786
vt 0.355896 0.176787
vt 0.355896 0.000206
vt 0.709057 0.711253
vt 0.709057 0.727527
vt 0.532475 0.727527
vt 0.532475 0.711253
vt 0.305623 0.728677
vt 0.000206 0.728677
vt 0.000206 0.552097
vt 0.305623 0.552097
vt 0.709057 0.738747
vt 0.709057 0.750493
vt 0.532475 0.750492
vt 0.532475 0.738746
vt 0.355484 0.344897
vt 0.185134 0.345289
vt 0.184614 0.327772
vt 0.355446 0.326743
vt 0.355271 0.000206
vt 0.355341 0.299180
vt 0.183307 0.300937
vt 0.179077 0.000247
vt 0.709057 0.758997
vt 0.532475 0.758997
vn 0.0000 -1.0000 0.0000
vn -0.0000 0.3048 0.9524
vn 1.0000 0.0000 0.0000
vn -0.0000 -0.0000 1.0000
vn -1.0000 -0.0000 -0.0000
vn -0.0000 0.8061 0.5918
vn -0.0000 0.6367 0.7711
vn 0.0000 1.0000 0.0000
vn -0.0000 0.9640 0.2661
vn -0.4711 0.8503 0.2347
vn -0.4847 0.8747 -0.0000
vn -0.3327 0.6004 0.7272
vn -0.4078 0.7360 0.5403
vn -0.1665 0.3005 0.9391
usemtl Material.011
s off
f 42/1/1 38/2/1 3/3/1 11/4/1
f 46/5/2 15/6/2 7/7/2 40/8/2
f 10/9/3 14/10/3 6/11/3 2/12/3
f 38/13/4 40/8/4 7/7/4 3/14/4
f 18/15/5 20/16/5 8/17/5 4/18/5
f 3/19/5 7/20/5 15/21/5 11/22/5
f 11/22/5 15/21/5 16/23/5 12/24/5
f 22/25/3 24/26/3 13/27/3 9/28/3
f 9/28/3 13/27/3 14/10/3 10/9/3
f 48/29/6 19/30/6 16/31/6 45/32/6
f 45/32/7 16/31/7 15/6/7 46/5/7
f 44/33/1 41/34/1 12/35/1 17/36/1
f 41/34/1 42/1/1 11/4/1 12/35/1
f 37/37/1 43/38/1 18/39/1 4/40/1
f 43/41/1 44/33/1 17/36/1 18/42/1
f 39/43/8 8/44/8 20/45/8 47/46/8
f 47/47/9 20/48/9 19/30/9 48/29/9
f 1/49/3 5/50/3 23/51/3 21/52/3
f 21/53/3 23/54/3 24/26/3 22/25/3
f 12/24/5 16/23/5 19/55/5 17/56/5
f 17/56/5 19/55/5 20/57/5 18/58/5
f 23/59/9 35/60/9 36/61/9 24/62/9
f 5/63/8 27/64/8 35/65/8 23/66/8
f 21/67/1 22/68/1 34/69/1 33/70/1
f 1/71/1 21/72/1 33/73/1 25/74/1
f 9/75/1 10/76/1 32/77/1 31/78/1
f 22/68/1 9/75/1 31/78/1 34/69/1
f 13/79/7 29/80/7 30/81/7 14/82/7
f 24/62/6 36/61/6 29/80/6 13/79/6
f 2/83/4 6/84/4 28/85/4 26/86/4
f 14/82/2 30/81/2 28/85/2 6/84/2
f 10/76/1 2/87/1 26/88/1 32/77/1
f 35/60/10 47/47/10 48/29/10 36/61/10
f 27/64/11 39/43/11 47/46/11 35/65/11
f 33/70/1 34/69/1 44/33/1 43/41/1
f 25/74/1 33/73/1 43/38/1 37/37/1
f 31/78/1 32/77/1 42/1/1 41/34/1
f 34/69/1 31/78/1 41/34/1 44/33/1
f 29/80/12 45/32/12 46/5/12 30/81/12
f 36/61/13 48/29/13 45/32/13 29/80/13
f 26/86/4 28/85/4 40/8/4 38/13/4
f 30/81/14 46/5/14 40/8/14 28/85/14
f 32/77/1 26/88/1 38/2/1 42/1/1
