# Blender v2.79 (sub 0) OBJ File: 'suelos 101 buenos.blend'
# www.blender.org
mtllib A08.mtl
o Cube.008_Cube.004
v 1.027200 -0.990516 -1.000000
v 1.027200 -0.990516 1.000000
v -0.760407 -0.990516 1.000000
v -0.972800 -0.990516 -1.000001
v 1.027200 1.009484 -1.000000
v 1.027199 0.706324 1.000000
v -0.761862 -0.990668 0.999999
v -1.065020 -0.991795 -1.000000
v 1.027200 -0.990516 0.885317
v 1.027200 -0.990516 0.951838
v -0.911467 -0.990516 0.951837
v -0.972800 -0.990516 0.885317
v 1.027200 0.937404 0.885318
v 1.027199 0.856844 0.951838
v -0.912381 -0.991228 0.951837
v -0.992940 -0.991528 0.885317
v -0.972800 -0.990516 0.821783
v -0.972800 -0.990516 0.729619
v -1.039580 -0.991701 0.821783
v -1.065020 -0.991796 0.729619
v 1.027200 -0.990516 0.729619
v 1.027200 -0.990516 0.821783
v 1.027200 1.009484 0.729620
v 1.027200 0.984044 0.821784
v -0.562916 -0.990516 -1.000000
v -0.562916 -0.990516 1.000000
v -1.040648 0.449117 -1.000000
v -0.738479 0.473610 1.000000
v -0.968804 0.454940 0.885318
v -0.888507 0.461448 0.951838
v -0.562916 -0.990516 0.885317
v -0.562916 -0.990516 0.951837
v -0.562916 -0.990516 0.729619
v -0.562916 -0.990516 0.821783
v -1.040648 0.449116 0.729620
v -1.015291 0.451171 0.821783
v 0.527200 0.937404 0.885318
v 0.527199 0.856844 0.951838
v 0.527200 1.009484 0.729620
v 0.527200 0.984044 0.821784
v 0.527200 -0.990516 -1.000000
v 0.527200 -0.990516 1.000000
v 0.527200 1.009484 -1.000000
v 0.527199 0.706324 1.000000
v 0.527200 -0.990516 0.885317
v 0.527200 -0.990516 0.951837
v 0.527200 -0.990516 0.729619
v 0.527200 -0.990516 0.821783
v -0.347509 -0.990516 -1.000000
v -0.347509 -0.990516 1.000000
v -0.852537 0.812324 -1.000000
v -0.651975 0.650719 1.000000
v -0.347509 -0.990516 0.885317
v -0.347509 -0.990516 0.951837
v -0.347509 -0.990516 0.729619
v -0.347509 -0.990516 0.821783
v -0.816615 0.779195 0.885318
v -0.757626 0.735104 0.951838
v -0.852537 0.812323 0.729620
v -0.839859 0.800631 0.821784
v -0.498086 0.952735 0.885318
v -0.492985 0.862130 0.951838
v -0.499010 1.008313 0.729620
v -0.498684 0.988697 0.821784
v -0.243875 -0.990516 -1.000000
v -0.243875 -0.990516 1.000000
v -0.499010 1.008313 -1.000000
v -0.482917 0.709442 1.000000
v -0.243875 -0.990516 0.885317
v -0.243875 -0.990516 0.951837
v -0.243875 -0.990516 0.729619
v -0.243875 -0.990516 0.821783
vt 0.071643 0.732230
vt 0.071643 0.740627
vt 0.037213 0.740627
vt 0.010878 0.732230
vt 0.071229 0.552916
vt 0.048540 0.309058
vt 0.076279 0.307168
vt 0.096799 0.552509
vt 0.712810 0.302093
vt 0.712810 0.624151
vt 0.704413 0.597908
vt 0.704413 0.302093
vt 0.111150 0.305051
vt 0.081273 0.306342
vt 0.000185 0.757078
vt 0.000185 0.740999
vt 0.301721 0.740997
vt 0.301721 0.757076
vt 0.722654 0.013445
vt 0.722526 0.013731
vt 0.706467 0.014588
vt 0.706542 0.014304
vt 0.688866 0.019012
vt 0.690938 0.016187
vt 0.735484 0.302093
vt 0.735484 0.646327
vt 0.724407 0.638196
vt 0.724407 0.302093
vt 0.040681 0.556432
vt 0.016604 0.311632
vt 0.030392 0.310468
vt 0.053963 0.554449
vt 0.071643 0.709557
vt 0.071643 0.720633
vt 0.000185 0.720633
vt 0.000185 0.709557
vt 0.704042 0.373552
vt 0.402504 0.373552
vt 0.402505 0.302093
vt 0.704042 0.302094
vt 0.071643 0.693489
vt 0.000185 0.693489
vt 0.251427 0.301723
vt 0.000185 0.301723
vt 0.000185 0.000185
vt 0.251426 0.000185
vt 0.024391 0.560495
vt 0.000185 0.313147
vt 0.704042 0.651139
vt 0.704042 0.999815
vt 0.402504 0.999815
vt 0.402504 0.651139
vt 0.751551 0.302093
vt 0.751551 0.650762
vt 0.675174 0.019012
vt 0.682040 0.009658
vt 0.659653 0.013101
vt 0.669133 0.000185
vt 0.061952 0.624508
vt 0.074347 0.612478
vt 0.322736 0.301723
vt 0.322736 0.000185
vt 0.109197 0.693489
vt 0.109197 0.709557
vt 0.704042 0.411106
vt 0.402504 0.411105
vt 0.109197 0.720633
vt 0.109197 0.732230
vt 0.082990 0.604158
vt 0.095071 0.594111
vt 0.148966 0.302993
vt 0.112304 0.579977
vt 0.109197 0.740627
vt 0.348860 0.732230
vt 0.348860 0.740627
vt 0.261692 0.740627
vt 0.261692 0.732230
vt 0.396833 0.643003
vt 0.307661 0.635932
vt 0.310011 0.608279
vt 0.399157 0.614343
vt 0.402134 0.302971
vt 0.310383 0.302093
vt 0.394020 0.675945
vt 0.304483 0.668293
vt 0.305900 0.654299
vt 0.395237 0.661797
vt 0.348860 0.709557
vt 0.348860 0.720633
vt 0.261692 0.720633
vt 0.261692 0.709557
vt 0.704042 0.650769
vt 0.402504 0.650769
vt 0.402504 0.563600
vt 0.704042 0.563600
vt 0.348860 0.693489
vt 0.261692 0.693489
vt 0.659283 0.301723
vt 0.572114 0.301723
vt 0.572114 0.000185
vt 0.659283 0.000185
vt 0.392531 0.693119
vt 0.302721 0.685335
vt 0.127264 0.732230
vt 0.127264 0.740627
vt 0.135677 0.616621
vt 0.139635 0.590395
vt 0.166730 0.302094
vt 0.129187 0.647026
vt 0.132123 0.634944
vt 0.127264 0.709557
vt 0.127264 0.720633
vt 0.704042 0.429173
vt 0.402504 0.429173
vt 0.127264 0.693489
vt 0.393207 0.301723
vt 0.393207 0.000185
vt 0.124289 0.662796
vn 0.0000 -1.0000 -0.0000
vn -0.3054 0.0049 0.9522
vn 1.0000 0.0000 0.0000
vn -0.0000 -0.0000 1.0000
vn 0.0139 -0.9999 -0.0000
vn 0.2343 -0.6422 -0.7298
vn 0.0813 -0.9931 -0.0845
vn -0.8067 0.0135 0.5908
vn -0.6376 0.0106 0.7703
vn -0.9999 0.0169 -0.0000
vn -0.9640 0.0163 0.2655
vn 0.0253 -0.9996 -0.0079
vn 0.0155 -0.9999 -0.0016
vn -0.8722 0.4449 0.2032
vn -0.8880 0.4599 0.0000
vn -0.6180 0.2926 0.7297
vn -0.7865 0.3825 0.4848
vn -0.3112 0.1501 0.9384
vn -0.0000 0.3048 0.9524
vn -0.0000 0.8061 0.5918
vn -0.0000 0.6367 0.7711
vn 0.0000 1.0000 0.0000
vn -0.0000 0.9640 0.2661
vn -0.1352 0.3156 0.9392
vn -0.4323 0.7886 0.4373
vn -0.3050 0.5918 0.7461
vn -0.4849 0.8746 0.0000
vn -0.4759 0.8609 0.1798
vn 0.0016 0.9714 0.2374
vn -0.0011 1.0000 -0.0000
vn 0.0062 0.6138 0.7894
vn 0.0082 0.8384 0.5450
vn 0.0013 0.3028 0.9530
usemtl Material.012
s off
f 32/1/1 26/2/1 3/3/1 11/4/1
f 30/5/2 15/6/2 7/7/2 28/8/2
f 10/9/3 14/10/3 6/11/3 2/12/3
f 26/13/4 28/8/4 7/7/4 3/14/4
f 18/15/5 20/16/5 8/17/5 4/18/5
f 3/19/6 7/20/6 15/21/6 11/22/6
f 11/22/7 15/21/7 16/23/7 12/24/7
f 22/25/3 24/26/3 13/27/3 9/28/3
f 9/28/3 13/27/3 14/10/3 10/9/3
f 36/29/8 19/30/8 16/31/8 29/32/8
f 29/32/9 16/31/9 15/6/9 30/5/9
f 34/33/1 31/34/1 12/35/1 17/36/1
f 31/34/1 32/1/1 11/4/1 12/35/1
f 25/37/1 33/38/1 18/39/1 4/40/1
f 33/41/1 34/33/1 17/36/1 18/42/1
f 27/43/10 8/44/10 20/45/10 35/46/10
f 35/47/11 20/48/11 19/30/11 36/29/11
f 1/49/3 5/50/3 23/51/3 21/52/3
f 21/53/3 23/54/3 24/26/3 22/25/3
f 12/24/12 16/23/12 19/55/12 17/56/12
f 17/56/13 19/55/13 20/57/13 18/58/13
f 59/59/14 35/47/14 36/29/14 60/60/14
f 51/61/15 27/43/15 35/46/15 59/62/15
f 55/63/1 56/64/1 34/33/1 33/41/1
f 49/65/1 55/66/1 33/38/1 25/37/1
f 53/67/1 54/68/1 32/1/1 31/34/1
f 56/64/1 53/67/1 31/34/1 34/33/1
f 57/69/16 29/32/16 30/5/16 58/70/16
f 60/60/17 36/29/17 29/32/17 57/69/17
f 50/71/4 52/72/4 28/8/4 26/13/4
f 58/70/18 30/5/18 28/8/18 52/72/18
f 54/68/1 50/73/1 26/2/1 32/1/1
f 10/74/1 2/75/1 42/76/1 46/77/1
f 14/78/19 38/79/19 44/80/19 6/81/19
f 2/82/4 6/81/4 44/80/4 42/83/4
f 24/84/20 40/85/20 37/86/20 13/87/20
f 13/87/21 37/86/21 38/79/21 14/78/21
f 22/88/1 9/89/1 45/90/1 48/91/1
f 9/89/1 10/74/1 46/77/1 45/90/1
f 1/92/1 21/93/1 47/94/1 41/95/1
f 21/96/1 22/88/1 48/91/1 47/97/1
f 5/98/22 43/99/22 39/100/22 23/101/22
f 23/102/23 39/103/23 40/85/23 24/84/23
f 70/104/1 66/105/1 50/73/1 54/68/1
f 62/106/24 58/70/24 52/72/24 68/107/24
f 66/108/4 68/107/4 52/72/4 50/71/4
f 64/109/25 60/60/25 57/69/25 61/110/25
f 61/110/26 57/69/26 58/70/26 62/106/26
f 72/111/1 69/112/1 53/67/1 56/64/1
f 69/112/1 70/104/1 54/68/1 53/67/1
f 65/113/1 71/114/1 55/66/1 49/65/1
f 71/115/1 72/111/1 56/64/1 55/63/1
f 67/116/27 51/61/27 59/62/27 63/117/27
f 63/118/28 59/59/28 60/60/28 64/109/28
f 39/103/29 63/118/29 64/109/29 40/85/29
f 43/99/30 67/116/30 63/117/30 39/100/30
f 47/97/1 48/91/1 72/111/1 71/115/1
f 41/95/1 47/94/1 71/114/1 65/113/1
f 45/90/1 46/77/1 70/104/1 69/112/1
f 48/91/1 45/90/1 69/112/1 72/111/1
f 37/86/31 61/110/31 62/106/31 38/79/31
f 40/85/32 64/109/32 61/110/32 37/86/32
f 42/83/4 44/80/4 68/107/4 66/108/4
f 38/79/33 62/106/33 68/107/33 44/80/33
f 46/77/1 42/76/1 66/105/1 70/104/1
