# Blender v2.79 (sub 0) OBJ File: 'pared01.blend'
# www.blender.org
mtllib pared01.mtl
o Cube.001_Cube.002
v -3.982557 -4.021696 0.000042
v -3.982557 2.118376 0.000042
v -3.982557 -4.021696 -0.524288
v -3.982557 2.118376 -0.524288
v 4.412010 -4.021696 0.000042
v 4.412010 2.118376 0.000042
v 4.412010 -4.021696 -0.524288
v 4.412010 2.118376 -0.524288
vt 0.944053 0.000158
vt 0.944053 0.649750
vt 0.888581 0.649750
vt 0.888581 0.000158
vt 0.999842 0.000158
vt 0.999842 0.649750
vt 0.944370 0.649750
vt 0.944370 0.000158
vt 0.888265 0.000158
vt 0.888265 0.649749
vt 0.000158 0.649750
vt 0.000158 0.000158
vt 0.000158 0.650066
vt 0.888263 0.650067
vt 0.888263 0.705539
vt 0.000158 0.705538
vt 0.888263 0.761328
vt 0.000158 0.761328
vt 0.000158 0.705856
vt 0.888263 0.705855
vn -1.0000 0.0000 0.0000
vn 1.0000 0.0000 0.0000
vn 0.0000 0.0000 1.0000
vn 0.0000 -1.0000 0.0000
vn 0.0000 1.0000 0.0000
usemtl None
s off
f 1/1/1 2/2/1 4/3/1 3/4/1
f 7/5/2 8/6/2 6/7/2 5/8/2
f 5/9/3 6/10/3 2/11/3 1/12/3
f 3/13/4 7/14/4 5/15/4 1/16/4
f 8/17/5 4/18/5 2/19/5 6/20/5
